<?xml version="1.0" encoding="UTF-8"?>
<svg version="1.1" viewBox="0 0 1582 2048" width="1280" height="1280" xmlns="http://www.w3.org/2000/svg">
<path transform="translate(715,674)" d="m0 0h11l11 4 8 6 6 8 3 8 1 17h46l26 1v-12l2-10 6-10 9-8 12-4h11l10 3 8 6 6 7 4 9 1 4 1 14h28l29 1 11 3 14 7 11 9 9 11 7 15 2 8 1 12v56h39l15 1 11 3 16 8 12 11 8 10 7 15 3 15v336l-3 15-8 16-6 8-10 10-13 8-16 5-9 1-156 1 15 29 10 20 23 1 5 4 2 4-1 8-5 5-4 1h-307l-6-3-3-6 1-8 6-5 23-1 25-50h-158l-13-2-16-7-13-10-7-8-8-13-4-11-2-9v-341l4-16 6-12 7-9 4-5 12-9 12-6 12-3 12-1h42v-63l2-10 5-13 7-10 9-10 10-7 13-6 8-2 14-1h33l11 1 1-17 4-10 7-9 10-6zm2 22-6 3-3 6v49l3 5 5 4 6 1 8-5 2-3v-52l-4-6-5-2zm142 0-6 3-3 4-1 6v43l3 7 6 4 5 1 6-3 4-5 1-3v-47l-3-6-6-4zm-220 43-13 2-12 6-8 7-6 9-4 9-1 5v27h392v-23l-2-11-6-12-5-6-8-6-8-4-6-2-8-1h-47l-1 1-1 16-3 10-6 8v2l-16 8h-17l-12-6-7-7-4-8-2-9-1-15h-72l-1 2-1 18-4 10-7 8-8 5-6 2h-16l-14-7-7-9-4-10-1-18-1-1zm-44 87v239l2 9 6 11 11 11 13 6 12 2h303l12-2 10-4 8-6 9-10 4-9 2-11v-236zm-64 35-11 1-12 5-8 6-7 7-6 11-2 5-1 6v283h614v-280l-3-14-7-12-8-8-10-6-9-3-9-1h-43l-1 196-1 15-5 15-7 12-12 12-14 8-12 4-5 1h-323l-15-4-11-6-12-10-8-11-6-13-3-13-1-206zm-47 346v31l3 12 7 11 9 9 13 7 9 2h533l10-3 11-6 10-10 7-14 2-11v-28zm224 94-15 30-10 19v2h216l-2-5-18-36-5-9-1-1z" fill="#e40134"/>
<path transform="translate(763,1013)" d="m0 0h55l9 3 6 5 4 9v33l-5 10-7 5-4 1h-61l-8-4-4-5-3-6v-35l4-8 6-5zm4 23v21h48v-21z" fill="#e40134"/>
<path transform="translate(644,1013)" d="m0 0h55l9 3 6 5 4 9v33l-5 10-7 5-4 1h-61l-8-4-4-5-3-7v-34l4-8 6-5zm4 23v21h48v-21z" fill="#e40134"/>
<path transform="translate(893,848)" d="m0 0h32l17 1 6 3 5 6 3 7v33l-4 8-7 6-6 2h-59l-8-4-6-7-2-4-1-8 1-27 4-8 7-6 2-1zm38 22-45 1v21h48v-21z" fill="#e40134"/>
<path transform="translate(774,848)" d="m0 0h31l18 1 6 3 5 6 3 6v34l-4 8-7 6-6 2h-59l-8-4-6-7-2-4v-35l4-8 7-6 2-1zm38 22-45 1v21h48v-21z" fill="#e40134"/>
<path transform="translate(654,848)" d="m0 0h32l18 1 6 3 6 7 2 5v34l-4 8-7 6-6 2h-58l-8-3-7-8-2-5v-34l4-8 7-6 3-1zm39 22-45 1v21h48v-21z" fill="#e40134"/>
<path transform="translate(641,931)" d="m0 0h62l7 4 6 7 2 5v33l-5 10-6 5-7 2h-57l-7-3-6-5-4-8v-35l5-8 6-5zm7 22v22h47l1-1v-21z" fill="#e40134"/>
<path transform="translate(879,931)" d="m0 0h62l7 4 6 7 2 5v33l-5 10-5 4-8 3h-57l-7-3-7-6-3-7v-35l5-8 8-6zm7 22v22h47l1-1v-21z" fill="#e40134"/>
<path transform="translate(760,931)" d="m0 0h62l7 4 6 7 2 5v33l-5 10-6 5-7 2h-57l-7-3-6-5-4-8v-35l5-8 8-6zm7 22v22h47l1-1v-21z" fill="#e40134"/>
<path transform="translate(937,1013)" d="m0 0 7 1 5 4 2 4-1 7-9 11h-2v2l-8 7-7 8-8 7-8 9-8 6h-8l-8-7-13-12-6-7-1-2v-6l4-6 4-2 8 1 8 7 7 6 4-2 33-33z" fill="#e40134"/>
<path transform="translate(790,1230)" d="m0 0 8 2 4 6v7l-5 6-2 1h-8l-6-5-2-7 4-7z" fill="#e40134"/>
</svg>
