<?xml version="1.0" encoding="UTF-8"?>
<svg version="1.1" viewBox="0 0 1582 2048" width="1280" height="1280" xmlns="http://www.w3.org/2000/svg">
<path transform="translate(775,833)" d="m0 0h6l11 7 12 10 13 10 18 14 14 11 18 14 14 11 18 14 8 6 1-48 4-5 5-2h69l7 3 3 5 1 119 5 2 12 10 13 10 18 14 14 11 8 7 2 4-1 7-7 8-8 8-7 8-7 6-17 17h-11l-3-2-1 93-5 6-2 1h-7l-5-3-3-5-1-111-10-8-54-42-14-11-18-14-14-11-18-14-14-11-36-28-15-12-9-7-4-2-16 12-15 12-13 10-9 7-10 8-14 11-13 10-18 14-28 22-18 14-17 13-15 12-9 7-10 8-1 299h31v-109l3-6 8-4 7 2 5 6v111h359v-110l5-6 2-1h8l5 3 2 4v110h54l6 4 2 5-1 7-7 6h-566l-5-4-2-4v-7l5-6 2-1h54v-279l-4 1h-10l-8-7-35-35-4-6v-7l4-6 13-10 14-11 54-42 28-22 18-14 28-22 18-14 14-11 13-10 18-14 15-12 13-10 18-14 16-12zm3 26-26 20-15 12-13 10-18 14-14 11-13 10-15 12-13 10-18 14-13 10-16 13-16 12-28 22-15 12-16 12-11 9v4l22 22 5-2 12-10 26-20 18-14 10-8 18-14 13-10 18-14 15-12 17-13 28-22 18-14 15-12 17-13 5-3h6l11 7 16 13 13 10 14 11 18 14 28 22 18 14 13 10 14 11 18 14 28 22 13 10 18 14 11 9h3l7-8 16-16-5-5-42-33-54-42-15-12-9-7-13-10-18-14-28-22-18-14-17-13-11-9-18-14-13-10zm153 39-1 6v44l5 5 14 11 18 14 6 4v-84z" fill="#e40134"/>
<path transform="translate(665,1081)" d="m0 0h227l6 6 1 3v221l-2 5-6 5h-225l-6-4-2-4v-224l4-6zm16 22-1 1v85l7 1h60l20-1v-86zm109 0v87l85-1 1-31v-54l-1-1zm-110 109v86l1 1h86v-87zm110 0v87h85l1-87z" fill="#e40134"/>
<path transform="translate(995,653)" d="m0 0h14l11 4 7 5 7 10 4 13 20 100v5l26-5 11-4 8-6 11-16 7-7 12-7 10-3 13-1 15 3 11 6 10 9 7 10 5 16v15l-4 13-6 11-9 9-10 6-12 4h-20l-12-4-18-11-7-2h-14l-20 4h-5l6 29 4 9 7 8 14 10 7 7 6 10 3 8 2 11v7l-2 4-5 1-4-3-1-15-4-10-6-9-12-9-9-7-7-10-4-10-22-109-14-70-4-9-7-6-13-4 6 28 31 155 4 22v8l-3 12-6 11-6 9-3 10v14l3 10 7 11 11 8 8 3 6 1h9l12-3 7-1 3 4-2 5-9 4-9 2h-15l-13-4-11-7-7-7-7-11-4-12v-20l4-11 7-12 4-7 2-6v-16l-4-20v-4l-106 21-7 1h-9l-10-3-9-6-7-9-4-11 2-5 16-4 121-24h4l-22-111-5-26v-6zm150 99-11 4-10 7-10 14-7 8-9 6-13 4-24 5 1 11 2 9 2 1 25-5h17l12 4 16 10 9 3h16l12-4 10-8 7-10 3-8 1-6v-8l-2-10-5-10-7-8-10-6-9-3zm-130 57-125 25-3 1 2 5 9 8 8 3 13-1 101-20 4-1-1-11-2-9z" fill="#e40134"/>
<path transform="translate(474,722)" d="m0 0h15l14 4 10 6 12 10 21 12 23 13 42 24 14 9 3 5 1 6-4 14-8 21-4 6-5 4-3 1h-7l-63-15-41-10-10 1-8 13-9 19-6 20-2 11v6l4 7-1 6-4 5-2 1h-7l-18-6-1 6-5 14v11l4 5 6 3h10l7-6 6-15 10-27 14-37 5-6 5-2 9 1 6 5 2 4v8l-11 30-17 45-3 8v6l4 4h7l4-6 19-51 10-27 5-8 4-3 3-1h7l8 4 4 6 1 6-4 14-15 39-12 33v7l6 4 6-2 3-5 4-10-1-3-6-4-1-2v-9l8-22 1-1h7l3-10 2-3 5 2 1 2-5 12 8 2 3-9 2-3 5 1 1 3-3 8v4l3 2-2 10-7 17-4 4-7 1-6-1-1 6-6 12-4 4-10 2-7-3-5-5-1-3v-10l10-27 14-38 6-17v-6l-1-3-9-1-4 4-11 29-16 43-6 14-6 5-3 1h-8l-7-4-4-6v-9l9-25 15-40 7-20-1-5-3-2-6 1-5 11-14 38-11 29-6 8-5 4-6 2h-10l-7-3-7-6-3-6v-14l6-17 1-5-6-1-11-5-4-3-1-3v-7l5-6 4-1 8-36 10-46-1-9-2-8v-18l4-13 6-11 12-12 16-8zm2 7-13 3-11 6-9 9-6 10-4 13v14l4 13 6 10 9 9 14 7 9 2h13l13-4 11-7 7-7 6-10 3-10 1-13-3-14-5-10-9-10-10-6-11-4-5-1zm55 26 4 16v11l-1 11 12 5 42 16h2l-1 5-7-1-44-16-7-2-8 12-8 8-9 5v2l80 20h3l17-46 1-3-9-6-23-13-42-24zm82 47-5 12-12 32v3l8 1 5-4 7-18 5-14v-7l-5-5zm-178 7-16 74 1 5 30 11h1l5-24 6-17 8-16 5-8v-2l-16-5-11-6-6-5-6-7zm-25 83-1 1v5l12 5 29 11h5v-6l-12-5-31-11zm137 47-6 16v5l6 4 10 3 4-4 5-14v-4l-16-6z" fill="#e40134"/>
<path transform="translate(1148,762)" d="m0 0h10l9 3 8 6 6 8 2 6v16l-5 10-7 7-8 4-5 1h-11l-9-3-10-9-5-10-1-5v-7l3-10 4-6 8-7zm2 10-7 2-7 6-3 7v12l4 7 8 6 4 1h8l7-3 6-5 3-7v-12l-5-8-8-5z" fill="#e40134"/>
<path transform="translate(1057,895)" d="m0 0h16l10 5 7 7 4 8 1 3v14l-4 9-7 8-6 4-6 2h-15l-9-4-8-7-5-9-1-4v-11l3-9 6-8 8-6zm1 10-8 5-5 8-1 4v7l5 10 7 5 3 1h11l8-4 5-6 2-6v-9l-4-8-6-5-5-2z" fill="#e40134"/>
<path transform="translate(479,745)" d="m0 0 11 1 10 5 7 7 4 8 2 8-1 11-3 8-9 10-8 4-8 2h-8l-9-3-9-6-6-9-3-9v-10l4-11 6-8 10-6zm0 7-10 3-7 5-5 9-1 11 3 9 4 6 8 5 8 2 9-1 8-4 7-8 2-6v-13l-4-8-8-7-11-3z" fill="#e40134"/>
<path transform="translate(442,839)" d="m0 0 8 1 5 3 3 6v9l-4 6-5 3h-9l-5-3-4-5-1-2v-7l3-6 5-4zm0 7-5 5 1 6 3 3h6l4-4v-6l-5-4z" fill="#e40134"/>
<path transform="translate(611,1229)" d="m0 0h8l6 5 1 2v8l-6 7-6 1-7-3-3-4-1-6 3-6z" fill="#e40134"/>
<path transform="translate(993,1235)" d="m0 0h7l6 5 1 2v9l-4 5-4 2-8-1-5-5-1-2v-7l4-6z" fill="#e40134"/>
<path transform="translate(635,816)" d="m0 0 4 1 5 4v2l9-1 6 3 3 4h10l4 3-1 4-2 1h-13l-5-4-1-2h-11l-8-7-2-3 1-4z" fill="#e40134"/>
<path transform="translate(625,843)" d="m0 0 5 1 4 4v2l11-1 8 7h10l3 3-2 4-5 1h-9l-5-5-4-2-6 1-6-3-6-7 1-4z" fill="#e40134"/>
<path transform="translate(629,830)" d="m0 0h5l6 6h10l5 3 2 3 12 1 2 2-1 4-1 1-12 1-5-3-3-4h-12l-9-9z" fill="#e40134"/>
<path transform="translate(978,768)" d="m0 0 6 1 18 12 3 3-1 6-1 1-7-1-15-10-5-4-1-4z" fill="#e40134"/>
<path transform="translate(936,740)" d="m0 0h5l15 10 7 6-1 5-2 2-6-1-16-11-5-4 1-5z" fill="#e40134"/>
<path transform="translate(464,778)" d="m0 0 11 3 16 6 2 2-1 5-9-1-20-8-1-5z" fill="#e40134"/>
<path transform="translate(471,759)" d="m0 0 8 2 19 7 2 2-1 5-8-1-21-8-1-4z" fill="#e40134"/>
<path transform="translate(467,769)" d="m0 0 7 1 19 7 3 2v5l-5 1-25-10-1-3z" fill="#e40134"/>
<path transform="translate(1102,945)" d="m0 0 5 2 1 5-4 4-4-1-3-5z" fill="#e40134"/>
<path transform="translate(1040,810)" d="m0 0h6l2 6-3 3h-5l-3-4 1-4z" fill="#e40134"/>
</svg>
