<?xml version="1.0" encoding="UTF-8"?>
<svg version="1.1" viewBox="0 0 1582 2048" width="1280" height="1280" xmlns="http://www.w3.org/2000/svg">
<path transform="translate(622,638)" d="m0 0h40l8 4 7 8 2 5 1 19 16-8 4-1h7l9 3 9 10 13 24 3 8-1 9-5 9-8 6-8 4 2 4 12 7 39-5h37l12 1 3 1 3-9 9-10 10-5 5-1 141-1 5-19 7-16 10-14 12-12 15-10 16-7 11-3 7-1h24l17 4 18 8 14 10 12 12 7 10 8 15 5 17 1 6v25l-4 17-5 12-6 11-8 10-6 7-13 10-13 7h-2l-1 179-4 9-8 9-10 5-5 1h-21l-1 25-3 26-5 25-6 20-8 21-12 25-12 20-13 18-12 14-7 8-14 14-1 150-5 10-7 7-8 4-5 1h-331l-9-3-8-6-6-9-2-13v-141l-21-21-8-10-13-17-12-19-6-10-13-28-9-27-6-25-4-31-1-13v-15h-75l-12-4-10-9-6-8-3-9-1-16v-227l1-26 4-9 4-6 7-7 12-6 4-1h120l2-6 9-15 6-5 8-3h7l9 3 10 5h1l1-16 4-9 5-6zm7 22-1 1-1 23-5 5-11 6-7 3-8-2-14-8h-2l-10 19-3 4v2l16 9 4 5 1 2v21l-3 5-10 7-8 4 8 16 5 9 4-1 16-9 8 1 10 6 8 6 1 2 1 22h28l1-22 4-5 11-6 7-4 7 1 13 7 5 2 12-21 1-4-17-10-4-6v-21l4-6 17-10-2-6-11-19-5 2-12 7-7 1-7-3-13-8-3-4-1-23zm456 0-14 2-15 5-13 8-12 11-9 14-5 13-2 9v21l3 12 5 12 7 11 11 11 11 7 13 6 10 2h23l12-3 16-8 9-7 8-8 7-11 5-11 3-13 1-11-2-15-4-13-8-14-11-12-10-7-12-6-14-4zm-650 57-6 3-4 5-2 6v255l3 7 6 5 2 1h186l7-4 3-5 1-7v-28l1-73 2-5 4-1h9l5 5 1 3v102l-2 10-5 10-5 6-7 5-13 4-90 1-1 1 1 28 2 18 5 24 6 19 8 21 8 16 6 11 10 16 13 17 10 11 2-1v-22l-4-6-14-18-12-16-10-13-3-6-1-8 3-10 8-7 3-1h160l9 3 8 5 7 7 8 11 14 18 13 17 3-1 10-13 16-21 10-13 7-7 10-5 4-1h53l4 2 2 3v9l-5 6-48 1-7 3-7 8-10 13-13 17-4 5v2h149l8-9 9-12 16-21 3-4v-2l-51-1-4-4-2-7 3-7 3-2h61l7 3 5 6 2 4v13l-6 10-12 15-12 16-10 13-3 5v23l4-2 9-10 14-19 13-22 10-21 8-21 6-22 4-20 2-19v-26l-202-1-10-4-8-7-5-8-2-7-1-226-1-1-12-1h-37l-28 3-5 2-13 24-7 10-6 5-5 2h-10l-10-4-5-3h-4l-1 3-1 15-5 10-7 5-3 1h-42l-8-5-4-5-3-8-1-16-2-1-14 7-3 1h-10l-8-3-6-7-14-24-3-8v-9l5-10 8-6 8-5-1-4-12-7-5-6-3-7zm417 27-5 4-1 2v243l4 5 2 1h243l5-4 1-4v-165l-18 1-19-3-13-4-17-9-9-7-9-9-2 1v21l-3 7-4 3h-68l-6-7-1-76zm103 0v61h37v-60l-1-1zm-373 373 2 5 12 15 12 16 8 10 2 2h149l-4-7-9-11-12-16-8-10-4-3-5-1zm41 71v194l3 5 120 1h32l1-1v-199zm180 0-1 73v95l1 31 2 1 150-1 3-3v-196z" fill="#e40134"/>
<path transform="translate(634,699)" d="m0 0h16l11 4 10 7 7 9 4 10 1 14-2 10-5 10-8 9-11 6-8 2h-15l-11-4-8-6-8-9-5-12-1-5v-9l4-13 7-10 8-7 8-4zm3 23-8 5-4 7-1 7 2 7 5 6 5 3h12l8-5 4-8v-9l-3-6-7-6-3-1z" fill="#e40134"/>
<path transform="translate(1083,682)" d="m0 0h6l6 4 3 6 9 6 3 3 1 9-4 6-3 2h-9l-4-3-8-1 1 3 16 7 8 6 5 7 2 6v10l-4 11-5 6-5 4h-3l-1 6-4 5-3 1h-8l-6-5-3-5-9-4-6-7v-7l4-6 4-2 9 1 9 3 6-2 2-6-9-3-12-6-7-6-4-9v-11l4-9 5-6 5-4 4-7z" fill="#e40134"/>
<path transform="translate(470,852)" d="m0 0h101l6 4 2 4v7l-6 7-3 1h-100l-7-6-1-2v-7l4-6z" fill="#e40134"/>
<path transform="translate(469,904)" d="m0 0h103l6 5 1 2v8l-5 6-2 1h-103l-5-4-2-4 1-9z" fill="#e40134"/>
<path transform="translate(471,795)" d="m0 0h58l5 2 4 6v8l-5 6-4 1h-59l-5-3-3-5 1-9 5-5z" fill="#e40134"/>
</svg>
