<?xml version="1.0" encoding="UTF-8"?>
<svg version="1.1" viewBox="0 0 2048 2048" width="1280" height="1280" xmlns="http://www.w3.org/2000/svg">
<path transform="translate(202,93)" d="m0 0 14 2 9 6 6 8 3 7 1 14v67h1127l1-80 4-9 7-8 8-5 12-2 12 3 8 6 6 8 3 9v78l15-1h93l16 1 13 4 12 7 10 9 9 12 5 12 2 8 1 17v685l36 6 33 7 35 10 30 11 25 11 30 15 25 15 21 14 19 14 17 14 10 9 8 7 16 15 14 15 10 11 11 14 12 15 11 16 13 20 12 21 14 27 11 25 10 27 9 29 8 34 6 35 3 18v91l-5 31-6 33-8 32-12 36-12 29-14 29-14 24-11 18-14 20-14 18-11 13-9 10-7 8-25 25-8 7-13 11-14 11-19 14-17 11-20 12-24 13-23 11-33 13-28 9-27 7-30 6-19 3-43 4h-47l-42-4-36-7-29-7-27-8-27-10-28-12-22-11-24-14-16-10-16-11-21-16-14-12-8-7-12-11-24-24-7-8-12-14-11-14-9-12-1-1-1064-1-21-1-13-4-12-7-8-7-9-12-7-15-1-4v-1445l8-18 9-12 9-8 16-8 7-2 10-1h114l1-76 4-13 8-9 10-5z" fill="#FBF8F7"/>
<path transform="translate(202,93)" d="m0 0 14 2 9 6 6 8 3 7 1 14v67h1127l1-80 4-9 7-8 8-5 12-2 12 3 8 6 6 8 3 9v78l15-1h93l16 1 13 4 12 7 10 9 9 12 5 12 2 8 1 17-1 227-1 1-54 1h-80l-89-1h-1337l-37-1v-247l8-18 9-12 9-8 16-8 7-2 10-1h114l1-76 4-13 8-9 10-5z" fill="#FC8043"/>
<path transform="translate(1518,1116)" d="m0 0h50l31 4 30 6 24 7 19 7 23 10 22 12 19 12 16 12 16 13 16 15 10 10 7 8 13 16 10 14 6 9 11 19 11 21 9 23 9 27 7 30 3 20 2 28v29l-2 27-5 29-7 27-8 22-12 27-13 24-11 17-10 14-11 14-10 11-7 8-11 11-8 7-12 10-19 14-19 12-10 6-16 8-20 9-25 9-30 8-24 4-40 4h-15l-24-2-28-4-27-6-26-8-18-7-24-11-16-9-20-13-14-10-13-11-13-12-21-21-9-11-14-18-11-17-11-19-8-16-8-18-7-20-7-24-6-31-3-28v-46l3-27 6-29 7-25 11-29 11-23 11-19 14-21 10-13 9-10 7-8 12-13 12-11 10-9 16-12 18-12 20-12 27-13 21-8 26-8 27-6 20-3z" fill="#FBF8F8"/>
<path transform="translate(1599,952)" d="m0 0 17 2 30 5 26 6 34 10 32 12 24 11 26 13 25 15 21 14 19 14 17 14 10 9 8 7 16 15 14 15 10 11 11 14 12 15 11 16 13 20 12 21 14 27 11 25 10 27 9 29 8 34 6 35 3 18v91l-5 31-6 33-8 32-12 36-12 29-14 29-14 24-11 18-14 20-14 18-11 13-9 10-7 8-25 25-8 7-13 11-14 11-19 14-17 11-20 12-24 13-23 11-33 13-28 9-27 7-30 6-19 3-43 4h-47l-42-4-36-7-29-7-27-8-27-10-28-12-22-11-24-14-16-10-16-11-21-16-14-12-8-7-12-11-24-24-7-8-12-14-11-14-7-10v-3l43-1h91l11 9 10 9 11 8 13 10 20 13 17 10 17 9 30 13 27 9 23 6 23 5 27 4 19 2 17 1h18l31-2 29-4 20-4 27-7 26-9 29-12 15-8 23-14 21-14 17-13 17-14 7-7 8-7 10-10 7-8 9-10 8-11 9-12 12-18 9-15 11-19 12-26 11-29 7-24 6-27 4-27 2-22v-46l-3-30-5-28-6-26-12-36-13-30-10-20-10-17-10-15-10-14-8-10-9-11-16-17-18-18-8-7-16-13-14-10-15-10-21-13-27-14-33-13-23-7-25-6-30-6-1-31z" fill="#0793FD"/>
<path transform="translate(1598,955)" d="m0 0h1l1 73v31l11 1 32 7 26 7 25 9 23 10 23 12 19 12 12 8 14 10 14 11 11 10 8 7 22 22 7 8 10 12 11 14 12 18 8 13 10 18 11 23 11 27 9 28 7 30 5 32 2 22v46l-3 31-5 28-7 28-8 24-8 20-7 16-12 22-10 17-12 18-8 11-10 13-9 11-7 7-7 8-11 11-8 7-9 8-14 11-12 9-18 12-23 14-16 9-26 11-19 7-15 5-33 8-24 4-29 3-18 1h-18l-28-2-30-4-24-5-20-5-20-6-21-8-25-11-22-12-18-11-13-9-12-9-13-10-11-10-8-6h-134l-1 2-1-3 8-1 119-1 5-1-2-5-3-1-7-8-10-10-7-8-8-10-11-15-10-15-13-22-12-23-12-28-11-33-8-34-4-26-2-22v-43l2-25 4-27 6-28 7-25 10-29 12-26 10-19 11-18 8-11 8-12 9-11 2-3h2l2-4 12-13 9-10 16-16 11-9 9-8 19-14 23-15 23-13 31-15 28-10 20-6 24-6 37-6 18-2h47l29 3zm-80 161-25 3-25 5-25 7-23 8-24 11-19 10-22 14-16 12-10 8-13 12-12 11-11 12-9 10-9 12-10 14-11 18-12 22-10 23-8 23-6 21-6 29-3 27v46l3 28 6 31 8 28 8 21 11 24 12 21 14 21 10 13 9 11 11 12 21 21 8 7 15 12 18 12 18 11 19 10 21 9 33 11 26 6 25 4 17 2 15 1h15l40-4 29-5 31-9 24-9 25-12 18-10 21-14 12-9 10-8 20-18 10-10 7-8 13-16 12-17 12-19 14-26 12-28 7-21 7-27 4-25 2-27v-29l-2-28-4-24-6-26-11-33-9-21-10-19-10-17-6-9-11-15-14-17-14-15-10-10-8-7-17-14-17-12-18-11-20-11-28-12-27-9-25-6-30-5-17-2z" fill="#88C4FD"/>
<path transform="translate(381,321)" d="m0 0h832l10 2 9 6 6 8 3 10v8l-3 9-6 9-5 4-10 4-15 1h-800l-23-1-10-5-7-7-5-10-1-9 2-9 4-8 7-7 8-4z" fill="#FBF8F8"/>
<path transform="translate(1432,196)" d="m0 0h99l16 1 13 4 12 7 10 9 9 12 5 12 2 8 1 17-1 227-1 1-54 1h-80l-34-1-4-2 1-5v-175l-2-5v-7l1-5-1-60v-38z" fill="#FD6C30"/>
<path transform="translate(1181,1741)" d="m0 0h91l11 9 10 9 11 8 13 10 20 13 17 10 17 9 30 13 27 9 23 6 23 5 27 4 19 2 17 1h18l31-2 29-4 20-4 27-7 26-9 29-12 15-8 5-2-4 4-12 9-7 9-11 9-13 11-15 11-8 6-24 16-22 14-12 6-12 7-31 14-15 6-28 9-13 4-11 2h-12l-42-3-16-2-9-1-8-2-5-1-12-3h-2v-2l-10-2-4-1v-2l-12-2-6-2h-3v2l-5-1-23-10-20-10-24-14-16-10-16-11-21-16-14-12-8-7-12-11-24-24-7-8-12-14-11-14-7-10v-3z" fill="#27A4FD"/>
<path transform="translate(1320,670)" d="m0 0h51l17 1 3 3 2 13v146l-1 29-1 4-4 2h-179l-8-2-3-3-1-12v-172l3-6 10-2z" fill="#FD7F42"/>
<path transform="translate(271,1011)" d="m0 0h125l4 2 1 4 1 55v127l-1 7-2 1-11 1h-111l-65-2-5-1-1-13v-140l1-37 1-1 11-1z" fill="#A4E9F4"/>
<path transform="translate(931,1351)" d="m0 0h123l7 2 1 1 1 9v179l-5 5-4 1h-111l-73-2-2-2-1-43v-92l1-54 1-1z" fill="#A3E8F4"/>
<path transform="translate(597,1351)" d="m0 0h124l9 1 1 1 1 27v157l-1 9-1 1-9 1h-115l-65-2-3-1-1-16-1-37v-88l1-47 2-3 7-1z" fill="#A4E9F4"/>
<path transform="translate(933,1011)" d="m0 0h122l6 2 1 1 1 41v143l-1 7-5 2-16 1h-78l-88-2-7-2-1-40v-95l1-55z" fill="#A4E9F4"/>
<path transform="translate(264,671)" d="m0 0h134l2 1 1 8 1 56v101l-1 29-10 1-76 1-99-2-9-1-1-17v-137l1-36 1-1 7-1z" fill="#A4E9F4"/>
<path transform="translate(1010,670)" d="m0 0h17l32 1 3 3 1 44v133l-1 14-1 1-9 1-76 1-98-2-9-1-1-1-1-38v-96l1-56 10-1 49-2z" fill="#A4E9F4"/>
<path transform="translate(601,1011)" d="m0 0h120l9 1 1 1 1 27v156l-1 10-6 1-16 1h-85l-80-2-6-1-1-35v-81l1-69 1-6z" fill="#A3E8F4"/>
<path transform="translate(671,670)" d="m0 0h17l40 1 3 2 1 29v152l-1 12-8 1-59 1h-21l-93-2-12-1-1-47v-66l1-69 1-9 9-1 47-2z" fill="#A3E8F4"/>
<path transform="translate(1325,1010)" d="m0 0h41l21 1 4 4 2 5 1 19v46l-35 17-24 14-22 15-17 13-14 12-12 11-14 14-7 8-9 10-1 2h-2l-2 4-3 3h-28l-7-6-1-4v-179l3-5 4-2 9-1z" fill="#FD8043"/>
<path transform="translate(1543,1198)" d="m0 0 12 1 9 5 8 9 3 8 1 200 1 1h123l23 1 10 4 7 7 5 11 1 11-4 11-7 8-8 5-6 2h-180l-11-4-7-6-5-8-2-10v-228l2-10 6-9 8-6 4-2z" fill="#756369"/>
<path transform="translate(403,1326)" d="m0 0h7l10 3 5 3v2l3 1 7 11 2 6v7l-3 10-9 16-8 13-17 29-9 15-14 24-8 13-11 19-16 27-14 24-11 17-8 8-8 4-4 1h-7l-12-5-10-9-11-14-11-13-11-14-11-13-11-14-9-10-7-9-11-13-7-10-3-6-1-5v-8l3-10 9-10 5-4 4-2h12l11 4 5 3 7 8 14 17 11 13 8 10 13 16 9 11 4 3h2l2-7 13-22 14-24 7-11 6-11 16-27 10-17 15-25 7-11 7-8 5-2v-2z" fill="#29D3B5"/>
<path transform="translate(978,1352)" d="m0 0h81l3 2 1 9v179l-2 3-9 2h-73l-1-146z" fill="#67D9EC"/>
<path transform="translate(978,1012)" d="m0 0h82l2 2 1 41v143l-1 7-1 1-22 1h-60l-1-145z" fill="#67D9EC"/>
<path transform="translate(1010,670)" d="m0 0h17l32 1 3 3 1 44v133l-1 14-1 1-81 1-1-1-1-147v-47h32z" fill="#67D9EC"/>
<path transform="translate(1307,672)" d="m0 0h79l4 3 1 4 1 35v115l-1 37-2 1h-83l1-11 1-8-1-51 1-21v-38l-1-55-1-10z" fill="#FD6C30"/>
<path transform="translate(648,1352)" d="m0 0h82l1 1 1 27v157l-1 9-1 1-9 1h-71l-1-1-1-131z" fill="#67D9EC"/>
<path transform="translate(671,670)" d="m0 0h17l40 1 3 2 1 29v152l-1 12-81 1-1-1-1-133v-61l1-1z" fill="#67D9EC"/>
<path transform="translate(648,1012)" d="m0 0h82l1 1 1 27v156l-1 10-6 1h-76l-1-134z" fill="#67D9EC"/>
<path transform="translate(318,1012)" d="m0 0h81l2 5 1 55v127l-1 7-2 1h-80l-1-5z" fill="#67D9EC"/>
<path transform="translate(356,671)" d="m0 0h42l2 1 1 8 1 56v101l-1 29-81 1-1-1-1-142v-52z" fill="#67D9EC"/>
<path transform="translate(202,93)" d="m0 0 14 2 9 6 6 8 3 7 1 14v67l1 2-1 98-2 10-5 8-8 7-11 4h-12l-12-6-6-7-4-9-1-6-1-49v-52l1-76 4-13 8-9 10-5z" fill="#68D8EC"/>
<path transform="translate(1391,93)" d="m0 0 13 2 9 6 6 7 4 11 1 80v95l-2 13-4 6-8 8-8 4-5 1h-11l-9-4-8-7-5-9-2-16-1-92 1-3 1-78 4-9 7-8 8-5z" fill="#68D8EC"/>
<path transform="translate(1378,1012)" d="m0 0 9 1 2 1 3 10 1 59-1 3-33 16-24 14-21 14-4-2-1-5 3-6 3-4-3-1-3-9v-12l-1-13v-48l3-11h2l3 4h2v-2l-2-2v-4l3-2z" fill="#FD6C30"/>
<path transform="translate(1599,952)" d="m0 0 4 1h-3l1 51 20 10v2l5 1 14 9 30 20v2l6 2 8 7 6 4v2l5 2 11 10 5 4 7 10v2h2v2l5 2 8 5-2 1-25-12-28-11-23-7-25-6-30-6-1-31z" fill="#27A4FE"/>
<path transform="translate(1557,201)" d="m0 0 5 1 14 9 8 8 9 14 5 16 1 17-1 227-2-4v-227l-1-14-2-1-2-10h-2l-2-5v-3l-3-1-1-4-4-2-8-7v-2l-4-2v-2h-2v-2l-5-1v-2l-2-1z" fill="#FC844A"/>
<path transform="translate(1557,201)" d="m0 0 5 1 14 9 8 8 9 14 5 16v14l-2-1-1-14-2-1-2-10h-2l-2-5v-3l-3-1-1-4-4-2-8-7v-2l-4-2v-2h-2v-2l-5-1v-2l-2-1z" fill="#FC8246"/>
<path transform="translate(1844,1714)" d="m0 0v3l-16 17-9 9-8 7-6 5-5 5-12 9-19 14-9 6-11 6-5 3-2-1 24-15 11-8 16-12 17-14 7-7 8-7 10-10 7-8z" fill="#27A4FE"/>
<path transform="translate(1900,1631)" d="m0 0 1 3-21 36-7 10-18 24-9 10v-3l7-8 10-13 14-20 12-20z" fill="#27A4FE"/>
<path transform="translate(1329,1117)" d="m0 0 3 1-15 10-1-3 5-6h5z" fill="#FD7F42"/>
<path transform="translate(1340,1109)" d="m0 0h5l-3 3-8 5-2-1z" fill="#FD8043"/>
</svg>
