<svg xmlns="http://www.w3.org/2000/svg" viewBox="0 0 2048 2048" width="1280" height="1280"><path transform="translate(880,52)" d="m0 0h300l8 3 10 9 5 11 5 21 16 75 12 57 2 8 8 4 123 51 4 2 4-1 16-10 40-26 17-11 26-17 16-11 18-12 11-5h16l8 3 11 9 199 199 7 11 2 6v11l-4 11-10 16-18 27-10 16-15 23-11 17-15 23-10 16 1 5 10 25 15 36 19 46 10 24 2 2 45 9 94 20 24 6 8 4 7 7 5 10 1 5v290l-1 10-6 11-8 7-11 4-36 8-46 10-30 6-9 3-5 12-9 23-10 19-8 14-12 17-9 10-7 8-9 9-17 13-19 11-18 8-17 5h-10v2l16-1h63l56 1 25 2 24 6 22 8 16 8 11 6 12 8 13 10 15 14 12 13 12 17 8 14 8 17 7 21 4 19 1 12v272l-1 1-360 1h-43v259l-10 1h-1013l-1-1v-259l-404-1v-282l6-26 5-15 7-16 8-14 11-16 12-14 13-13 11-9 17-12 18-10 18-8 18-6 21-5 7-1 17-1 66-1h66l-16-4-18-7-16-8-18-12-12-11-3-2v-2l-3-1-7-8-8-9-12-17-9-15-8-16-8-18-8-23-6-2-104-22-11-4-8-7-5-7-3-10v-294l4-11 7-9 8-5 15-4 147-31 4-1 4-8 12-29 15-36 14-34 11-27-1-7-33-51-52-80-6-12-1-11 3-10 5-8 4-5 7-6 5-6 7-6 5-6 7-6 5-6 7-6 5-6 7-6 5-6 7-6 5-6 7-6 5-6 7-6 5-6 7-6 5-6 7-6 5-6 7-6 5-6 7-6 5-6 7-6 5-6 7-6 5-6 7-6 6-7h2l2-4h2l2-4h2l2-4h2l1-3 10-8 11-4h10l11 4 18 11 15 10 17 11 77 50 10 7 7-1 70-29 39-16 22-9 4-13 19-90 12-56 4-11 5-7 11-7zm131 499-25 2-24 3-26 5-29 8-26 9-23 10-22 11-17 10-21 14-16 12-11 9-12 11-8 7-12 12v2h-2l-7 8-11 13-13 17-14 21-10 17-12 23-11 25-12 35-7 30-4 21-4 40v29l10 28 4 17 3 28v28l5 16 7 19 12 27 12 22 13 21 13 18 9 11 11 13 12 13 17 17 11 9 13 11 14 10 13 9 20 12 27 14 23 10 22 8 28 8 19 4 11 1h23l9-1 2-2-21-5-21-8-23-12-17-12-11-9-10-9-16-16-9-11-10-13-14-21-12-21-14-29-12-31-2-4-12-3-11-6-10-8-11-12-10-15-8-15-8-21-5-17-4-22-1-11v-11l3-19 6-14 7-7 8-4 4-1h16l10 3-3-12-5-23-4-28v-45l4-26 5-21 8-24 9-20 10-18 15-22 11-13 7-8 9-10 8-7 14-12 11-8 18-12 18-10 23-11 30-10 22-5 18-3 14-1h10l20 2 19 3 26 7 21 8 20 9 21 12 19 13 16 13 10 9 8 7 9 9 16 8 15 9 10 8 9 9 9 14 6 14 4 15 3 17 1 13v20l-2 27-4 30-7 39-7 31v2l11-3h14l11 4 7 6 6 10 4 16 1 7v19l-4 25-6 22-10 24-8 14-7 10-11 13-10 8-14 7-10 3-6 15-12 29-12 24-13 22-12 17-10 13-12 14-18 18-14 11-11 8-15 9-23 11-21 7-10 2 3 2 5 1h17l16-1 26-6 21-6 28-10 24-11 23-12 24-15 19-14 10-8 14-12 4-3v-2l4-2 17-17 9-11 10-11 9-12 7-10 10-15 12-20 8-16 10-22 6-15 7-23v-28l3-27 5-20 6-17 3-9v-24l-4-40-5-29-7-28-9-27-10-24-10-21-14-24-11-17-10-14-13-16-18-20-14-14-8-7-14-12-19-14-18-12-19-11-23-12-31-13-28-9-29-7-24-4-26-3-21-1z" fill="#79A5FD"></path><path transform="translate(880,52)" d="m0 0h300l8 3 10 9 5 11 5 21 16 75 12 57 2 8 8 4 123 51 4 2 4-1 16-10 40-26 17-11 26-17 16-11 18-12 11-5h16l8 3 11 9 199 199 7 11 2 6v11l-4 11-10 16-18 27-10 16-15 23-11 17-15 23-10 16 1 5 10 25 15 36 19 46 10 24 2 2 45 9 94 20 24 6 8 4 7 7 5 10 1 5v290l-1 10-6 11-8 7-11 4-36 8-46 10-30 6-9 3-2 1 2-12 6-21 4-22 3-26v-37l-5-29-6-20-10-23-8-14-10-14-11-13-13-13-11-9-18-12-19-10-16-6-21-6-30-5h-23l-23 4-23 6-25 10-15 8-12 8-14 12-13 12-10 11-10 14-11 18-4 7h-1l-1-25-4-40-5-29-7-28-9-27-10-24-10-21-14-24-11-17-10-14-13-16-18-20-13-13-8-7-14-12-19-14-18-12-19-11-23-12-31-13-28-9-29-7-24-4-26-3-21-1h-20l-25 2-24 3-26 5-29 8-26 9-23 10-22 11-17 10-21 14-16 12-11 9-12 11-8 7-11 11-1 2h-2l-2 4-11 12-11 14-13 18-12 19-12 22-11 23-10 26-8 25-6 26-4 21-4 40-1 28h-2l-8-15-13-19-11-12-7-8-13-12-11-9-16-10-16-8-16-6-23-6-27-4h-21l-19 3-24 6-17 6-23 11-14 9-13 10-10 9-13 13-12 16-9 15-8 16-7 19-6 24-2 14-1 23 2 28 4 29 6 28 1 7-12-1-45-10-49-10-13-4-6-4-7-8-4-9-1-4v-294l4-11 7-9 8-5 15-4 147-31 4-1 4-8 12-29 15-36 14-34 11-27-1-7-33-51-52-80-6-12-1-11 3-10 5-8 4-5 7-6 5-6 7-6 5-6 7-6 5-6 7-6 5-6 7-6 5-6 7-6 5-6 7-6 5-6 7-6 5-6 7-6 5-6 7-6 5-6 7-6 5-6 7-6 5-6 7-6 5-6 7-6 5-6 7-6 6-7h2l2-4h2l2-4h2l2-4h2l1-3 10-8 11-4h10l11 4 18 11 15 10 17 11 77 50 10 7 7-1 70-29 39-16 22-9 4-13 19-90 12-56 4-11 5-7 11-7z" fill="#484866"></path><path transform="translate(448,844)" d="m0 0h21l27 4 23 6 20 8 16 8 12 8 14 12 12 11 13 14 9 12 9 14 6 11v2l3 1 10 28 4 17 3 28v28l5 16 7 19 12 27 12 22 13 21 13 18 9 11 11 13 12 13 16 16 11 9 13 11 14 10 13 9 20 12 27 14 23 10 22 8 28 8 19 4 32 2-3 3-8 4-9 8-6 12-2 9-1 9v23l4 15 9 14 6 7 11 7 1 3-9 65-16 112-28 197-10 70 1 4 11 12 39 39v2l4 2v2l4 2 7 8 35 35v3h-509l-1-1v-259l-404-1v-282l6-26 5-15 7-16 8-14 11-16 12-14 13-13 11-9 17-12 18-10 18-8 18-6 21-5 7-1 17-1 66-1h66l-16-4-18-7-16-8-18-12-12-11-3-2v-2l-3-1-7-8-8-9-12-17-9-15-8-16-8-18-8-23-1-5-6-27-4-25-2-18-1-28 2-22 5-23 8-24 8-16 8-14 12-16 9-10 14-14 20-15 18-10 20-9 19-6 28-6z" fill="#79A5FD"></path><path transform="translate(1019,592)" d="m0 0h10l20 2 19 3 26 7 21 8 20 9 21 12 19 13 16 13 10 9 8 7 9 9 16 8 15 9 10 8 10 10 9 14 6 14 4 15 3 17 1 13v20l-2 27-4 30-7 39-7 31-1 2 11-4h14l11 4 8 7 6 10 4 16 1 7v19l-4 25-6 22-10 24-8 14-7 10-11 13-8 7-14 8-13 3-3 9-8 21-9 20-14 27-12 19-13 18-11 13-9 10-16 16-14 11-11 8-15 9-23 11-21 7-7 2 6 2 13 7 7 6 6 10 4 12 1 7v25l-3 12-4 9-7 10-6 7-10 7-1 3 9 66 7 48 30 211 17 119-1 4-62 62-7 8-32 32h-2v2h-2l-3-5-39-39-6-7-50-50-4-5 3-24 15-105 24-169 20-140 1-12-5-2-9-7-9-12-5-10-3-12v-23l2-14 5-13 6-7 9-7 10-5 9-1-22-6-20-8-21-11-17-12-11-9-10-9-17-17-9-11-10-13-14-21-12-21-14-29-12-31-1-4-9-1-14-7-10-8-7-7-10-13-12-21-8-20-6-20-4-22-1-11v-11l3-19 6-14 8-8 8-4 4-1h16l10 4-5-15-5-26-3-22v-45l4-26 5-21 8-24 9-20 10-18 15-22 11-13 7-8 10-11 8-7 14-12 11-8 18-12 18-10 23-11 30-10 22-5 18-3z" fill="#FCD7A7"></path><path transform="translate(1081,1328)" d="m0 0h11l5 1 26 1h149l26 4 27 8 30 10 23 10 23 13 21 14 14 11 12 11 8 7 11 11 9 11 10 13 10 15 12 21 12 28 6 19 5 23 3 20 1 10 1 22v384l-10 1h-502v-2l8-7 31-31 7-8 53-53 2-3h2l-2-18-28-196-17-120-12-84-4-30 2-4 12-9 9-12 4-8 3-9 1-6v-25l-3-14-6-12-5-6-10-6-6-3v-1z" fill="#EAE9E9"></path><path transform="translate(957,1328)" d="m0 0 25 1-3 3-8 4-9 8-6 12-2 9-1 9v23l4 15 9 14 6 7 11 7 1 3-9 65-16 112-28 197-10 70 1 4 11 12 39 39v2l4 2v2l4 2 7 8 35 35v3h-509l-1-1 1-100v-107l-2-110v-53l1-27 3-31 5-24 6-21 10-25 11-21 12-19 16-21 12-13 17-17 11-9 16-12 17-11 16-9 16-8 19-8 29-9 19-5 18-3 8-1 100-1h64l17-1z" fill="#EAE9E9"></path><path transform="translate(1577,844)" d="m0 0h23l30 5 25 7 20 9 16 9 17 12 16 15 9 9 13 17 8 13 8 16 8 20 5 19 4 24v37l-4 33-6 27-4 13-3 13-9 24-10 21-10 17-12 17-9 10-7 8-9 9-17 13-19 11-18 8-17 5h-10v2l-14 1h-33l-26-7-19-7-19-10-17-12-15-14-13-15-13-18-12-21-8-17-9-25-8-28-5-25-5-30-1-4v-28l3-27 5-20 6-17 3-9 4-4 8-14 11-16 9-10 7-8 15-14 14-11 19-11 18-8 21-7 28-6z" fill="#FCD7A7"></path><path transform="translate(448,844)" d="m0 0h21l27 4 23 6 20 8 16 8 12 8 14 12 12 11 13 14 9 12 9 14 6 11v2l3 1 10 28 4 17 3 28v29l-4 19-5 30-7 27-13 38-10 20-11 18-12 16-11 13-9 9-17 13-14 9-22 10-16 5-24 4h-32l-11-1-19-5-18-7-16-8-18-12-12-11-3-2v-2l-3-1-7-8-8-9-12-17-9-15-8-16-8-18-8-23-1-5-6-27-4-25-2-18-1-28 2-22 5-23 8-24 8-16 8-14 12-16 9-10 14-14 20-15 18-10 20-9 19-6 28-6z" fill="#FCD6A7"></path><path transform="translate(1019,592)" d="m0 0h10l20 2 19 3 26 7 21 8 20 9 21 12 19 13 16 13 10 9 8 7 9 9 16 8 15 9 10 8 10 10 9 14 6 14 4 15 3 17 1 13v20l-2 27-4 30-7 39-7 31-1 3-5-2-8-7-17-17-11-14-7-10-13-23-9-19-9-25-7-25-2-2-11 10-15 10-15 8-25 9-23 6-26 5-43 6-59 7-39 6-33 7-23 7-15 6-21 10-18 11-10 8-11 9-15 15-5 2-5-18-5-28-2-15v-45l4-26 5-21 8-24 9-20 10-18 15-22 11-13 7-8 10-11 8-7 14-12 11-8 18-12 18-10 23-11 30-10 22-5 18-3z" fill="#7B635C"></path><path transform="translate(984,1328)" d="m0 0h16l14 1h49l12 5 9 7 6 9 4 11 2 10v25l-3 12-4 9-7 10-6 7-10 7-1 3 9 66 7 48 30 211 17 119-1 4-62 62-7 8-32 32h-2v2h-2l-3-5-39-39-6-7-50-50-4-5 3-24 15-105 24-169 20-140 1-12-5-2-9-7-9-12-5-10-3-12v-23l2-14 5-13 6-7 9-7z" fill="#AC211F"></path><path transform="translate(1008,487)" d="m0 0h37l35 4 25 4 33 7 25 7 17 6 21 8 15 7 19 9 10 6 19 11 12 8 11 8 12 9 14 11 9 8 9 7 28 28 7 8 11 12 10 13 9 12 4 6v2h2l5 9 9 14 8 14 14 28 12 29 7 20 9 31 3 12 4 17 2 12 2 5v4l-11 9-15 14-9 10-10 14-11 18-4 7h-1l-1-25-4-40-5-29-7-28-9-27-10-24-10-21-14-24-11-17-10-14-13-16-18-20-13-13-8-7-14-12-19-14-18-12-19-11-23-12-31-13-28-9-29-7-24-4-26-3-21-1h-20l-25 2-24 3-26 5-29 8-26 9-23 10-22 11-17 10-21 14-16 12-11 9-12 11-8 7-11 11-1 2h-2l-2 4-11 12-11 14-13 18-12 19-12 22-11 23-10 26-8 25-6 26-4 21-4 40-1 28h-2l-8-15-13-19-11-12-7-8-13-12-8-7v-2h2l-1-3 2-5 2-12 9-35 12-36 6-17 7-15 6-13 8-16 12-22 11-17 1-2h2l2-5 16-22h2l1-4 5-5 4-5h2l2-4 11-12 4-5 8-7 8-8h2l2-4 8-7 3-1v-2l13-10 5-4h2v-2l12-8 16-11 15-9 14-8 23-12 19-8 15-6 38-12 34-8 28-5 25-3z" fill="#3D3D54"></path><path transform="translate(1521,200)" d="m0 0h16l8 3 11 9 199 199 7 11 2 6v11l-4 11-10 16-18 27-10 16-15 23-11 17-15 23-10 16 1 5 10 25 15 36 19 46 10 24 2 2 45 9 94 20 24 6 8 4 7 7 5 10 1 5v290l-1 10-6 11-8 7-11 4-36 8-46 10-30 6-9 3-2 1 2-12 4-10 10 1 13-5 10-3 2 1 1-2 8-2 8-3 1-2 3-1 4-8 2-19 1-26v-241l-1-28-2-6-4-5-13-5-12-2-10-2-10-3-26-5-56-12-23-4-15-4-9-4-4-3v-2h-2l-6-12-24-58-5-13-7-15-9-21-2-7v-8l11-18 32-48 7-11 9-14 15-23 6-9 7-14 4-10 1-4v-8l-2-5-3-4v-2h-2l-9-11-3-3v-2l-3-1-5-6-5-4-7-8-15-15-8-7v-2l-4-2v-2l-4-2v-2l-4-2v-2l-4-2v-2l-4-2-25-25-6-5-6-7-35-35v-2l-4-2-3-3v-2l-4-1-7-8-20-20-2-1-1-5h-2l2-4 21-14z" fill="#3D3D54"></path><path transform="translate(1081,1328)" d="m0 0h11l5 1 26 1h149l26 4 27 8 30 10 23 10 23 13 21 14 14 11 12 11 8 7 11 11 9 11 10 13 10 15 12 21 12 28 6 19 5 23 3 20 1 10 1 22v384h-1l-1-256-1 2h-2v3h-2v22l-1 47v78l-1 90-3 6-11 3-28 1-2 1v-2l-6 2-8-2-1 1h-8l-4-5-1-10v-366l-2-33-3-25-4-18-6-19-7-17-7-15-13-22-4-6v-2h-2l-1-4h-2l-9-12-9-10-17-17-8-6-5-5-13-10-15-10-17-10-15-8-8-3v-2l-5-1-19-8-15-5-24-5-19-2-16-1-70-1h-31l-9-1-3 4-12-6v-1z" fill="#DBD7D5"></path><path transform="translate(1398,1057)" d="m0 0 2 2 7 41 6 25 7 22 9 25 13 25 8 12 11 15 13 15 7 7 14 11 18 11 17 8 22 7 12 3v1l-48 1h-83l-25 1-12 3-10 2-24 8-18 8-16 9-12 8-11 8-3 1-15-3-19-2h-145l-26-1-5-1v-1l28-6 24-7 28-10 24-11 23-12 24-15 19-14 10-8 14-12 4-2v-2l8-7 12-12 9-11 10-11 9-12 7-10 10-15 12-20 8-16 10-22 6-15z" fill="#3D3D54"></path><path transform="translate(649,1057)" d="m0 0 2 3 7 21 11 26 8 16 9 17 13 21 13 18 9 11 11 13 12 13 16 16 11 9 13 11 14 10 13 9 20 12 27 14 23 10 22 8 28 8 26 5-3 2-17 1h-64l-100 1-21 3-8 1-5-4-18-12-22-12-19-8-22-7-20-4-25-1-124-1h-6l3-2 17-3 19-7 16-8 13-8 13-10 12-11 8-9 10-13 10-15 10-18 8-17 13-40 6-25 7-41z" fill="#3D3D54"></path><path transform="translate(727,1327)" d="m0 0 9 2 8 6-4 3-22 6-21 7-21 9-16 8-17 10-16 11-13 10-14 12-20 20-11 14-11 15-12 20-10 19-10 26-7 26-4 23-2 24-1 27v53l2 110v107l-1 81h-1v-240h-22l-54-1-3-1-1-14 1-113 2-34 3-20 6-22 7-20 9-21 10-19 10-15 10-13 14-17 17-17 8-7 12-10 17-12 19-12 19-10 27-11 29-9 24-5 22-3 28-2z" fill="#508FF1"></path><path transform="translate(1323,1327)" d="m0 0 26 3 33 5 17 4 26 8 19 8 16 8 20 11 12 8 14 10 10 8 11 9 20 20 9 11 10 13 10 15 12 22 7 15 7 18 5 17 5 26 2 28 1 37v103l-1 1-35 1h-43l-1-125-1-22-3-25-4-20-8-27-10-23-7-14-10-17-11-15-11-14-12-13-8-8-8-7-12-10-15-11-19-12-14-8-27-12-36-12-14-4v-3l8-6z" fill="#5090F3"></path><path transform="translate(1019,592)" d="m0 0h10l20 2 19 3 26 7 21 8 20 9 21 12 19 13 16 13 10 9 8 7 9 9 16 8 15 9 10 8 10 10 9 14 6 14 4 15 3 17 1 13v20l-2 27-4 30-7 39-7 31-1 3-5-2-8-7-17-17-11-14-4-6-3-7v-11l-2-29-3-22-4-25-2-12-5-18-5-20-8-20-8-16-9-12v-2l-4-2v-2l-4-2v-2l-4-2-13-12-6-5v-2l-4-2-9-7v-2l-4-2-14-11-10-7-14-9-18-10-16-7-8-4-16-5-7-3-9-3-9-2-2-1v-2l8-3z" fill="#645149"></path><path transform="translate(1297,1632)" d="m0 0h8l9 4 11 7 3 4 1 19 1 104 1 155v59l-3 8-8 1v2h133v1h-429v-2l8-7 13-13v3l-16 16-1 2 53-1h191v-4l-3-8-1-8 1-29v-208l2-78 1-12 6-7 10-6z" fill="#DBD7D4"></path><path transform="translate(743,1632)" d="m0 0h10l12 5 8 6 1 2 1 103 1 162 1 20 1 16v9l1 10-1 15-3 9-1 2-16 2h-17l-5-1-16-1-4-5-1-6v-78l1-121 1-60 1-36 2-40 3-5 10-5z" fill="#DCD8D6"></path><path transform="translate(1085,52)" d="m0 0h95l8 3 10 9 5 11 5 21 16 75 12 57 2 8 8 4 123 51 3 3-5 5-14 9-6 3-14-1-6-3-10-3-6-2v-2l-5-1-14-5-1-2-5-1-15-6-12-5-11-5-8-3-12-5-27-11-11-5-17-7-13-8-4-10-5-21-3-12-5-25-3-12-3-16-6-28-4-18-7-28-3-10v-3h-32z" fill="#3D3D54"></path><path transform="translate(1422,1156)" d="m0 0 2 2 6 16 12 23 8 12 11 15 13 15 7 7 14 11 18 11 17 8 22 7 12 3v1l-48 1h-83l-25 1-12 3-10 2-24 8-18 8-16 9-12 8-11 8-3 1-15-3-19-2h-145l-26-1-5-1v-1l19-4 9 1 3-1 5 1 8-1 1 2 14-2 2 1 22-1h12l18 1 57 2 7-1 3-1v-2l11-6 5-3 2-2 9-6 6-5h2v-2l9-7h2v-2l8-6 3-1 2-4 9-8 16-16 7-8 2-3h2l2-4 13-16 2-3h2l2-4 5-8h2l2-4 6-10 7-11 9-17 2-2z" fill="#494866"></path><path transform="translate(626,1166)" d="m0 0h3l8 16 5 9 11 16 8 11v2h2l10 13 6 7v2h2v2l4 2 7 9 7 7 2 1v2l4 2v2h2l4 4v2l4 2 6 5 5 5v2l4 2 15 11v2l5 2 13 10 8 4 4 3 4 2v2l14-1h33l16-1h25l21 1h57l12 2-3 2-17 1h-64l-100 1-21 3-8 1-5-4-18-12-22-12-19-8-22-7-20-4-25-1-124-1h-6l3-2 17-3 19-7 16-8 13-8 13-10 12-11 8-9 10-13 10-15 10-18 7-15 2 1z" fill="#494866"></path><path transform="translate(984,1328)" d="m0 0h16l14 1h49l12 5 9 7 6 9 4 11 2 10v25l-3 12-4 9-7 10-6 7-10 7-2 1h-8l-8 1h-37l-13 1-2 2-5-1v-2h-3v-2l-4-1-1 2v-2l-5-2-9-7-9-12-5-10-3-12v-23l2-14 5-13 6-7 9-7z" fill="#BD2A29"></path><path transform="translate(513,1738)" d="m0 0h1l1 8 3 1 2 11 1 36v94l-1 17-1 40 1 35 3 6v2l20 1 99 1 15 2 21 1 8 1v1h-174l1-100z" fill="#FBFBFB"></path><path transform="translate(1093,1928)" d="m0 0 2 2h-2l-2 4-4 4h-2l-2 4-4 4h-2l-2 4h-2l-2 4-8 9-1 2h-2l-2 4-4 2v2h-2l-2 4-5 5 2 4 9 2 8 1 13 2 1 1 10 1v1l-12 1h-48l2-4z" fill="#FDFDFD"></path><path transform="translate(957,1328)" d="m0 0 18 1-1 2h-11l-7 2h-26l-69 1h-94l-15 1v-1l21-3 100-1h64l17-1z" fill="#DCD8D6"></path><path transform="translate(816,1328)" d="m0 0h141l-3 2-17 1h-163l3-2h15z" fill="#7B635C"></path><path transform="translate(1103,1326)" d="m0 0h2v2h142l20 1 9 1-4 1h-149l-26-1-5-1v-1z" fill="#7B635C"></path><path transform="translate(1911,787)" d="m0 0h1v290h-1l-1-249-1-26z" fill="#5C5262"></path><path transform="translate(1045,1974)" d="m0 0v3l-16 16-1 2 53-1 189 1v1h-246v-2l8-7z" fill="#DED9D5"></path><path transform="translate(1355,1354)" d="m0 0 7 1 16 7 23 13 21 14 14 11 12 11 8 7 11 11 6 7-1 2-32-32-17-13-10-7-21-13-16-8-21-10z" fill="#E7E5E5"></path><path transform="translate(866,1992)" d="m0 0h33l18 1 6 1v1l-8 1h-32l-82-1v-1l27-1z" fill="#F8F8F8"></path><path transform="translate(1122,1896)" d="m0 0h2l-2 4-7 7h-2l-1 4-4 4h-2l-1 5-4 2v2l-4 2v2l-5 2-45 45v-3l16-16 7-8z" fill="#F2EEE9"></path><path transform="translate(932,1871)" d="m0 0h2l2 12 1 4-1 5-8-1-2-3h-3v-6l5-2 3-8z" fill="#BD2928"></path><path transform="translate(1009,1984)" d="m0 0 1 2 5 2 5 5v2h-13l-6-1 3-2-2-2 2-4z" fill="#FDFDFD"></path><path transform="translate(992,1449)" d="m0 0 3 1v11l-2 8-3 10-2-1-1-10 1-2 2-12z" fill="#BE2A29"></path><path transform="translate(1398,1057)" d="m0 0 2 2 5 30v6h-1l-3-14-1-3v-9l-5-1 2-9z" fill="#625560"></path><path transform="translate(1122,1896)" d="m0 0h2l-2 4-7 7h-2l-1 4-4 4-5 3-7 7-2-1z" fill="#EFEEED"></path><path transform="translate(1444,1409)" d="m0 0 4 2 8 7 11 11 6 7-1 2-28-28z" fill="#E6E4E3"></path><path transform="translate(585,1227)" d="m0 0h5l-6 8-11 9-6 7-2-1 11-12 8-9z" fill="#494558"></path><path transform="translate(1473,1438)" d="m0 0 5 5 8 10 7 10v2l-3-1-7-11-10-13z" fill="#E7E6E5"></path><path transform="translate(1719,895)" d="m0 0 3 1v2l4 2v2l4 2 6 8h-3l-7-8-7-7z" fill="#534A57"></path><path transform="translate(1195,663)" d="m0 0 8 6 10 10-3 1-15-15z" fill="#978580"></path><path transform="translate(1021,1986)" d="m0 0 2 1v2l3 1 1 3-3 1v2h-2l-3-5-1-2z" fill="#B92D2C"></path><path transform="translate(499,1283)" d="m0 0 4 1-1 2-19 1 3-2z" fill="#665860"></path><path transform="translate(941,1326)" d="m0 0 9 1 2 2h-16v-2z" fill="#4E4B65"></path><path transform="translate(1122,1896)" d="m0 0h2l-2 4-7 7-3-1z" fill="#F4F3F3"></path><path transform="translate(936,1849)" d="m0 0h1l1 11-4 2 1-12z" fill="#BD2928"></path><path transform="translate(631,935)" d="m0 0h1v19h-2l-2-6h2z" fill="#64565D"></path><path transform="translate(1534,1983)" d="m0 0h1v11l-3-1 1-9z" fill="#FDFDFD"></path></svg>