<?xml version="1.0" encoding="UTF-8"?>
<svg version="1.1" viewBox="0 0 2048 2048" width="1280" height="1280" xmlns="http://www.w3.org/2000/svg">
<path transform="translate(156)" d="m0 0h940l456 456 2 5v316h12l19 4 15 6 11 6 13 10 11 11 9 13 8 15 5 16 2 12 1 64 1 2 24 10 16 8 15 8 24 16 14 11 14 12 24 24 9 11 10 13 14 21 11 19 12 26 10 28 7 28 4 24 2 21 1 91 2 47 4 42 4 30 6 35 8 37 9 35 11 36 11 32 15 38 12 27 14 29 15 29 14 24 14 23 18 27 15 22 4 11v10l-5 12-7 9-9 6-10 3h-326l3 17 1 10v15l-2 17-4 18-6 16-9 17-7 10-9 11-13 13-14 10-16 9-20 8-25 6h-34l-30-8-18-8-14-8-5-2-10 6-15 7-21 7-21 5-6 1h-1238l-31-7-20-7-20-10-12-8-14-11-12-11-7-8-11-14-8-13-8-16-6-15-6-21-3-15v-1738l8-32 8-20 9-17 8-12 11-14 16-16 17-13 13-8 16-8 20-7 19-5z" fill="#B1D3F2"/>
<path transform="translate(1550,776)" d="m0 0 16 1 19 4 15 6 11 6 13 10 11 11 9 13 8 15 5 16 2 12 1 64 1 2 24 10 16 8 15 8 24 16 14 11 14 12 24 24 9 11 10 13 14 21 11 19 12 26 10 28 7 28 4 24 2 21 1 91 2 47 4 42 4 30 6 35 8 37 9 35 11 36 11 32 15 38 12 27 14 29 15 29 14 24 14 23 18 27 15 22 4 11v10l-5 12-7 9-9 6-10 3h-326l3 17 1 10v15l-2 17-4 18-6 16-9 17-7 10-9 11-13 13-14 10-16 9-20 8-25 6h-34l-30-8-18-8-14-8-8-5-21-21-9-12-8-13-7-15-6-21-2-13-1-12v-14l2-25-321-1-10-2-10-5-6-5-7-11-2-10v-10l3-9 8-12 8-11 8-12 13-20 11-18 13-23 6-11 9-17 11-23 5-10 4-10 15-35 8-22 15-45 8-28 8-32 8-40 6-37 4-35 2-24 2-65 1-75 3-27 4-22 7-25 10-28 8-17 12-22 10-16 13-18 7-9h2l2-4 11-12 18-18 10-8 18-14 17-11 16-9 23-11 11-5 10-4h2l1-6-1-9v-51l1-7 2-3v-5h2l-1-3h2l-1-3h2l2-10h2l1-6 3-3v-2l4-4v-2l5-5 6-7 8-7 13-9 9-5 14-6 18-4z" fill="#F5C31E"/>
<path transform="translate(669,671)" d="m0 0h643l13 2 11 4 12 7 12 11 10 15 5 12 2 8v21l-3 13-8 16-11 12-8 7-14 8-14 4h-659l-10-2-12-5-14-10-8-8-7-11-5-11-4-15v-13l3-16 8-16 6-8 5-6 13-10 10-5 11-3z" fill="#3999D4"/>
<path transform="translate(1094)" d="m0 0 4 2 454 454v3h-117l-171-1-16-1-20-4-21-7-20-9-15-9-8-6-9-7v-2l-4-2-11-11-8-10-8-11-9-15-9-19-6-19-3-25-2-35v-261z" fill="#93BBE4"/>
<path transform="translate(1225,1129)" d="m0 0h26l-1 9-6 20-4 17-4 28-1 12-2 56h-556l-18-1-14-4-12-6-13-11-6-7-8-14-5-15-1-5v-13l2-12 5-13 6-10 11-12 8-7 16-8 9-2 10-1z" fill="#3999D4"/>
<path transform="translate(667,1589)" d="m0 0h515v6l-5 12-10 25-11 26-7 15-8 17-10 19-7 14-5 7h-447l-19-2-13-5-12-8-9-8-9-12-6-12-4-16v-14l3-14 5-12 9-13 5-6 10-8 16-8z" fill="#3A9AD5"/>
<path transform="translate(303,600)" d="m0 0h27l18 3 20 6 19 9 15 10 11 9 13 13 11 15 9 16 6 15 5 18 2 12 1 19-2 17-5 21-6 16-7 14-11 16-11 12-7 7-15 11-13 8-16 7-20 6-17 3h-24l-17-3-20-6-18-8-16-10-14-12-11-11-10-13-9-16-7-17-4-13-3-15-1-10v-13l2-17 5-21 6-16 8-15 12-16 12-13 15-12 16-10 15-7 15-5z" fill="#2982BA"/>
<path transform="translate(306,1059)" d="m0 0h21l21 3 20 6 19 9 15 10 13 11 12 12 12 17 8 15 7 19 4 18 2 17v9l-3 21-6 23-11 23-9 13-9 11-12 12-17 12-23 12-19 6-14 3-8 1h-23l-22-4-18-6-19-9-12-8-11-9-15-15-12-17-8-15-7-19-5-22-1-9v-13l3-24 6-21 7-16 9-15 9-11 9-10 10-9 13-9 14-8 14-6 17-5z" fill="#2982BA"/>
<path transform="translate(306,1518)" d="m0 0h23l19 3 20 6 19 9 15 10 13 11 11 11 13 18 8 16 5 12 5 18 3 22v11l-3 20-5 19-6 15-7 14-12 16-11 12-10 9-13 9-14 8-17 7-15 4-17 3h-24l-18-3-20-6-21-10-12-8-11-9-6-5-7-8-8-10-10-16-8-18-6-20-3-20v-13l2-18 5-21 6-16 8-15 12-16 12-13 11-9 15-10 15-8 21-7 15-3z" fill="#2982BA"/>
<path transform="translate(1469,1870)" d="m0 0h144l73 1 5 2 2 8 2 17v15l-2 17-4 18-6 16-9 17-7 10-9 11-13 13-14 10-16 9-20 8-25 6h-34l-30-8-18-8-14-8-8-5-21-21-9-12-8-13-7-15-6-21-2-13-1-12v-14l2-23 2-4z" fill="#F0A328"/>
<path transform="translate(1550,776)" d="m0 0 16 1 19 4 15 6 11 6 13 10 11 11 9 13 8 15 5 16 2 12 1 61-1 5-29-7-31-6-15-2-13-1h-39l-26 3-17 3-30 7-10 2-1-24v-42l1-7 2-3v-5h2l-1-3h2l-1-3h2l2-10h2l1-6 3-3v-2l4-4v-2l5-5 6-7 8-7 13-9 9-5 14-6 18-4z" fill="#D49735"/>
<path transform="translate(175,141)" d="m0 0h142l13 2 8 4 8 7 6 10 1 4v16l-4 10-6 8-8 6-8 3-6 1-67 1h-41v55l-1 54-2 10-6 9-8 7-9 4-4 1h-14l-12-5-9-8-6-12-2-16-1-42v-41l1-54 2-10 4-8 7-8 9-5 6-2z" fill="#FEFEFE"/>
<path transform="translate(1534,1025)" d="m0 0h27l10 4 10 9 5 9 2 8v11l-5 12-7 8-12 6-7 2-30 3-20 5-19 8-16 10-13 10-14 14-9 13-7 11-9 21-5 19-2 12-2 23-5 12-7 8-10 6-8 2h-8l-10-3-9-6-7-8-4-9-1-4v-18l4-27 7-27 10-25 10-19 12-17 11-13 6-7 8-7 11-10 17-12 15-9 25-12 19-6 16-4z" fill="#EBE7D1"/>
<path transform="translate(1837,1867)" d="m0 0h34l16 1 80 2v1h-213v-1l55-1z" fill="#EBA02B"/>
<path transform="translate(1447,882)" d="m0 0h1l1 21v17l1 13h-2l-1 2z" fill="#B2CADD"/>
<path transform="translate(1346,1247)" d="m0 0 3 1v2h2l3 3 1 7-4-1-4-5z" fill="#FAF9F5"/>
</svg>
