<?xml version="1.0" encoding="UTF-8"?>
<svg version="1.1" viewBox="0 0 2048 2048" width="1280" height="1280" xmlns="http://www.w3.org/2000/svg">
<path transform="translate(494)" d="m0 0h906l17 9 9 7 9 9 8 14 4 12 1 9v71h78l14 3 14 7 11 9 8 10 8 16 2 7 1 10v989l86-1h89l24 3 17 4 19 7 16 8 16 10 11 9 12 11 11 12 12 17 13 25 7 21 5 25 1 10v544l-3 21-5 21-8 20-9 17-11 16-9 10-7 8-10 9-15 11-16 9-17 8-22 7-16 4h-565l-30-7-18-6-16-8-15-9-13-10-12-11-13-14-9-13-10-17-8-19-6-21-3-19-1-16v-70h-114l-627-1-13-4-12-6-12-11-7-9-6-12-3-10-1-10v-69h-78l-14-3-14-7-12-10-9-12-6-14-2-8-1-34 1-1219 4-16 8-17 11-14 223-223 7-8 67-67 13-10 10-6 18-6z" fill="#E7F7FD"/>
<path transform="translate(1670,1181)" d="m0 0h89l24 3 17 4 19 7 16 8 16 10 11 9 12 11 11 12 12 17 13 25 7 21 5 25 1 10v544l-3 21-5 21-8 20-9 17-11 16-9 10-7 8-10 9-15 11-16 9-17 8-22 7-16 4h-565l-30-7-18-6-16-8-15-9-13-10-12-11-13-14-9-13-10-17-8-19-6-21-3-19-1-16v-70l1-468 3-23 6-21 8-19 6-10 5-9 12-16 6-7h2l2-4 11-10 14-10 13-8 21-10 19-6 19-4 8-1h80l124 1 166-1z" fill="#5FC02A"/>
<path transform="translate(1068,173)" d="m0 0h124l13 4 11 7 8 8 9 14 1 3 1 30 1 381v75l-1 16-3 9-9 11-7 7h-2v2l-11 7-9 2-13 1-59 1-13 1h-118l-186-1-7-3-6 1-1 1h-26l-40-2-29-3-9-2-8-5-9-9-4-9-3-15-2-16v-73l1-334 2-64 1-13 4-10 9-10 9-6 5-2 19-2 44-1z" fill="#C7EEFE"/>
<path transform="translate(1301)" d="m0 0h99l17 9 9 7 9 9 8 14 4 12 1 9v71h78l14 3 14 7 11 9 8 10 8 16 2 7 1 10v989l-2 1-168 1-78-1v-1l11-1v-1049l-2-63-2-22-4-12-9-13-8-7-21-14z" fill="#98E6FE"/>
<path transform="translate(1144,1181)" d="m0 0h10l4 2-1 5-8 8-2 3 4 2-13 7-12 8-11 9-9 8-1 2h-2l-2 4-7 8-9 13-7 11-9 20-6 18-3 15-2 16-1 468h-115l-627-1-13-4-12-6-12-11-7-9-6-12-3-10-1-10v-66l1-1 17-1 677-1 1-29 1-314 3-27 6-18 8-16 8-13 9-12 9-10 14-14 16-12 9-6 12-6 9-4 13-5 16-4 22-3z" fill="#C7EEFD"/>
<path transform="translate(1664,1437)" d="m0 0h15l12 5 11 7 10 10 7 6 5 6 8 7 8 8v2l3 1 7 8 8 10 5 11 1 4v12l-5 12-6 9-9 10-266 266-15 10-14 6-10 2h-21l-16-4-12-6-9-7-9-8-7-8-126-126-8-11-4-11v-16l5-12 10-13 47-47 12-9 9-4 4-1h13l10 3 10 6 15 14 46 46 10 7 6 3 5 1h7l10-3 11-8 163-163 7-8 13-13 12-9z" fill="#D4F1A3"/>
<path transform="translate(1670,1181)" d="m0 0h89l24 3 17 4 19 7 16 8 16 10 11 9 12 11 11 12 12 17 13 25 7 21 5 25 1 10v544l-3 21-5 21-8 20-9 17-11 16-9 10-7 8-10 9-15 11-16 9-17 8-22 7-16 4h-93l4-4 7-3 7-6 25-9 22-13 6-6h2l1-3 10-8 9-9 3-4h2l2-4 6-8 7-11 7-12 3-8 5-15 2-9 3-18 2-28 1-27 1-101 1-171v-187l-1-32-3-25-4-18-3-7-4-13-6-14v-2h-2v-3h-2l-2-5v-3l-3-1-2-4v-3l-3-1-4-7-4-5-17-17-2-1v-2l-5-2-9-7-14-9-12-6-9-2-6-3-17-2-18-1-9-2-27-2h-10l-9-1-25 2-5-1h-7v-1h6v-2z" fill="#52A726"/>
<path transform="translate(914,526)" d="m0 0h67l23 3 16 5 12 5 13 8 13 10 9 9 11 16 8 16 5 15 3 20 1 33v85h-104l-168-1-21-1-1-29v-64l1-24 2-15 4-15 6-14 9-14 9-11 9-9 14-10 15-8 18-6 16-3z" fill="#0494FF"/>
<path transform="translate(1455,134)" d="m0 0 5 1 3 4 12 5 9 6 9 11 6 8 2 4 2 18 2 81v896l1 12-5 1h-33l-9-1-5-3 2-4 4-3v-6l-6-5-3-12-4-36v-824l-1-38 1-94 1-15 3-1 1-4z" fill="#C8EFFE"/>
<path transform="translate(1104,173)" d="m0 0h88l13 4 11 7 8 8 9 14 1 3 1 30 1 381v75l-1 16-3 9-9 11-7 7h-2v2l-11 7-9 2-13 1-76 1-1-2 4-8 12-11 9-9 2-10 2-38 1-101 2-117v-174l-2-37-4-33-2-7-6-10v-2h-2v-2l-5-2-9-6-10-4-2-1v-3z" fill="#98E6FF"/>
<path transform="translate(1161,959)" d="m0 0 74 1 8 4 8 8 6 11v14l-3 8-8 9-6 4-3 1-12 1h-850l-40-1-8-2-8-7-6-8-2-5v-13l3-9 9-10 8-4 8-1z" fill="#98E6FF"/>
<path transform="translate(1664,1437)" d="m0 0h15l12 5 11 7 10 10 7 6 5 6 8 7 8 8v2l3 1 7 8 8 10 5 11 1 4v12l-5 12-6 9-9 10-266 266-15 10-14 6-10 2h-21l-16-4-12-6-9-7-9-8 1-2 7 6-4-7 1-4 16-6 13-8h2v-2l9-7 27-27 6-7h2l2-4 14-14 6-7h2l2-4 13-13 3-4h2l2-4 25-25 1-2h2l2-4h2l2-4h2l2-4 52-52 2-3h2l2-4h2l2-4 22-22 5-6 5-5h2l2-4 13-13 9-13 3-6 1-6v-11l-3-9-6-10-9-10-12-12-4-3v-2h-2l-3-4 2-4 17-17 12-9z" fill="#C2EC75"/>
<path transform="translate(734,1115)" d="m0 0h47l55 1 9 2 10 9 6 9 2 5v12l-5 10-5 6-9 6-3 1h-481l-28-1-7-3-5-4-6-8-3-7v-13l3-9 9-10 5-3 4-1 23-1z" fill="#98E6FF"/>
<path transform="translate(336,1429)" d="m0 0h505l8 4 7 7 5 8 2 6v10l-5 12-8 8-7 4-12 1h-460l-35-1-9-3-5-3-7-8-4-8v-14l4-10 7-8 8-4z" fill="#98E6FF"/>
<path transform="translate(469,8)" d="m0 0h3v282l-2 14-7 11-9 11h-2v2l-10 8-11 6-11 3-10 1h-67l-13-1v-4l14-9 10-9 6-8 4-8 3-7 3-19 1-15v-73l-1-45v-42l2-3 2-7 72-72 13-10z" fill="#98E6FE"/>
<path transform="translate(372,99)" d="m0 0 1 4-2 3v54l1 40v66l-2 23-3 14-7 14-11 12-11 8-8 5v2l13 1v1l-22 1h-38l-18-1-51-1h-68l-4-2-1-4 3-5 3-4h2l2-4 5-5 7-8h2l1-3 6-5 6-7 7-6 104-104 5-6 5-5h2l2-4 19-19 7-6 5-6 8-7 3-1 2-4 5-5 8-9 3-5 2-5z" fill="#C8EFFE"/>
<path transform="translate(914,526)" d="m0 0h67l23 3 16 5 12 5 13 8 13 10 9 9 11 16 8 16 5 15 3 20 1 33v85h-104l-8-2h-17l-1-3h2v-2h3l1 2 13 1v-2l6-2 3-6v-21l-1-48-1-19-3-24-5-17-5-12-8-16-8-12-1-3h-2l-7-8-8-8-14-10-10-5-13-3-4-3 1-1z" fill="#0184FF"/>
<path transform="translate(936,346)" d="m0 0h20l16 4 16 8 13 11 9 12 7 15 4 18v37l-2 18-5 15-5 10-8 11-9 9-14 9-1 1-12 1h-36l-11-1-7-4-13-11-10-10-7-11-4-12-2-13-1-15v-37l3-15 4-10 6-10 9-10 8-7 10-6 10-4z" fill="#F9DECE"/>
<path transform="translate(377,1272)" d="m0 0h202l17 1 8 5 8 8 6 12v9l-4 10-9 10-5 4-3 1-57 1h-80l-121-1-11-2-5-3v-2l-4-2-7-10-1-3v-14l4-10 8-9 10-4z" fill="#98E6FF"/>
<path transform="translate(1523,131)" d="m0 0 14 2 12 5 10 7 9 8 9 14 5 12 1 4v986l-3 3h-4l-1-3-3-44-1-26-1-92v-598l1-92v-37l-1-27-3-39-2-24-1-11-5-13-6-5-7-8-8-7-10-5-9-2-12-2-1-3 6-2z" fill="#97EEFE"/>
<path transform="translate(1056,1673)" d="m0 0h1v135h-115l-1-2h8l2-7v-6l2-3 1-15 1-40 2-56 1-2 44-1h29l24 1z" fill="#97E6FF"/>
<path transform="translate(438,617)" d="m0 0h9l11 4 10 9 5 10 1 9-2 9-5 9-9 10-93 93-13 9-7 2h-8l-11-4-8-7-5-8-2-6v-12l3-9 7-9 96-96 9-8 8-4z" fill="#0494FF"/>
<path transform="translate(732,1272)" d="m0 0h95l15 1 7 4 7 7 5 8 2 6v11l-5 10-2 3h-2l-2 4-7 5-3 1-12 1h-51l-52-1-9-2-8-6-6-7-4-9v-11l3-8 6-9 5-4 8-3z" fill="#98E6FF"/>
<path transform="translate(1059,1328)" d="m0 0h1v27l1 45v30l1 29 1 7v204l-1 35v7l-1 2v19l-1 31 1 14v7l1 6-1 7-1 3h-2v-470z" fill="#52A726"/>
<path transform="translate(1753,1503)" d="m0 0 3 1 7 14 1 4v12l-5 12-6 9-9 10-266 266-7 1 5-5 3-1 2-4 33-33 5-6 8-7 206-206h2l1-3 6-5 3-4h2l2-4 8-11 2-5v-23l-6-10z" fill="#CFF097"/>
<path transform="translate(1396)" d="m0 0 5 1 16 8 9 7 9 9 8 14 4 12v69l-7 1-3-6-1-8v-53l-1-3-2-5-8-15-7-8-8-5-4-8-8-2-3-4z" fill="#97EEFE"/>
<path transform="translate(888,499)" d="m0 0 7 6 7 7 9 7 7 4 11 1v1l-14 1-1 1-18 2-18 5-16 7-10 6-13 10-9 9-11 15-8 16-2 5-3 1-1-1v-8l4-11 6-9 10-13 10-12 15-11 16-8 22-8 9-3 3-3v-4h-2l-7-8-3-3z" fill="#DDF5FE"/>
<path transform="translate(1416,1183)" d="m0 0h146l2 2-11 1h-45l-1 1-27 1-2-1-1 2-5-1-5 1h-115l-4-1-14-1 2-3z" fill="#52A726"/>
<path transform="translate(469,8)" d="m0 0 2 1v7l-7 4-7 7-4 5-8 7-26 26-7 8-13 13-7 8-7 5-4 5-3 1 1-6 4-5 4-1 1-4 3-1 2-4 4-2 2-4h2l2-4 14-14h2l1-3h2l1-3 6-5 7-8 9-10 6-7h2l2-4 3-3 3-1 1-4z" fill="#97EEFE"/>
<path transform="translate(1024,533)" d="m0 0h7l10 4 15 9 12 11 8 9 6 9 4 9 1 8-1 2h-3l-7-14-12-16-8-8-14-10-14-8-3-1z" fill="#DEF5FE"/>
<path transform="translate(1053,1419)" d="m0 0h1v49h1v146l-3 4-1-9v-142l1-41z" fill="#E7F7FE"/>
<path transform="translate(917,350)" d="m0 0 3 1-13 7-9 7-8 8-8 13-4 10-3 15v37l1 15 3 16 4 10 5 8-1 2-7-10-5-14-2-13-1-20v-25l1-14 5-15 9-15 11-12 10-7z" fill="#E8F8FE"/>
<path transform="translate(1416,1183)" d="m0 0h146l2 2-11 1h-44v-2h-93z" fill="#58B327"/>
<path transform="translate(1400,1176)" d="m0 0h12l8 3v1l-10 1h-50l-2-2 9-1 23-1z" fill="#97EFFF"/>
<path transform="translate(1757,1549)" d="m0 0v3l-2 5h-2l-1 5-4 4-1 3-3 1-5 5-6 5-5 5-5 3-6 7-6 5 1-4 38-38z" fill="#55AD26"/>
<path transform="translate(1582,1182)" d="m0 0h67v1l-18 1-6 1-12-1-25 2-5-1h-7v-1h6z" fill="#5BB828"/>
<path transform="translate(1008,378)" d="m0 0h2l8 16 4 13 1 12v13l-1 23-1 8h-1v-49l-4-18-8-16z" fill="#E8F8FE"/>
<path transform="translate(1079,1268)" d="m0 0h2l1 3h-2v4h-3v6l-4 2-1 6v3h-2l-3 13-3 7-1 9-2 6h-1v-10l6-21 8-19z" fill="#55AE27"/>
<path transform="translate(1008,1802)" d="m0 0 6 1v2h2v-2h6l1 1 8 1v1l-45 1h-18v-1h15v-2l15-1h7z" fill="#97EFFF"/>
<path transform="translate(1717,1463)" d="m0 0 4 2 9 7v2l4 2v2l4 2 6 8 10 11 2 5-5-4-7-8-9-10-9-9-7-6z" fill="#54AA26"/>
<path transform="translate(1281,1586)" d="m0 0 2 1-42 42-2 3h-2v-2h2l2-5h2l2-4 6-6h2v-2h2v-2h2v-2l7-6 5-6 8-7z" fill="#52A726"/>
<path transform="translate(1753,1503)" d="m0 0 3 1 7 14 1 4v12l-2 4h-2l-1-23-6-10z" fill="#D0F097"/>
<path transform="translate(1181,1188)" d="m0 0h6l-2 3-10 2-1 2-11 2-5 3-8 3-5 3h-2v-2l23-11z" fill="#54AB26"/>
<path transform="translate(1204,1183)" d="m0 0h47v1l-43 1-14 3h-6l1-2z" fill="#52A726"/>
<path transform="translate(1094,1246)" d="m0 0h2l-1 5-5 5h-2v5h-2l-2 5-3 1 1-4 8-12z" fill="#55AD26"/>
<path transform="translate(1647,1444)" d="m0 0 2 1-13 11-9 9h-2l2-4 10-10 8-6z" fill="#56AF27"/>
<path transform="translate(1582,1183)" d="m0 0h27v1l-21 2-5-1h-7v-1z" fill="#52A726"/>
<path transform="translate(1619,1470)" d="m0 0 1 3-16 16h-2v-2h2v-2h2l1-3h2l2-4h2v-3z" fill="#56AF27"/>
<path transform="translate(804,740)" d="m0 0 5 2 3 5-2 1h-7v-7z" fill="#0184FF"/>
<path transform="translate(990,514)" d="m0 0 2 1-4 5-2 4h-9l4-4z" fill="#E6F7FE"/>
<path transform="translate(1372,1822)" d="m0 0 6 5 7 4 6 5-4 1-14-12z" fill="#C9EE87"/>
<path transform="translate(1739,1485)" d="m0 0 4 2 11 12 2 5-5-4-7-8-5-6z" fill="#56AF27"/>
<path transform="translate(1679,1439)" d="m0 0h6l10 5 3 2-1 3-10-6-8-3z" fill="#CEEF93"/>
<path transform="translate(1204,1183)" d="m0 0h4v2l-14 3h-6l1-2z" fill="#56AF27"/>
<path transform="translate(991,360)" d="m0 0 5 2 8 8 4 6-1 2-8-10-8-7z" fill="#E8F8FE"/>
<path transform="translate(426,622)" d="m0 0 3 1-9 8-4 2 2-4z" fill="#0289FF"/>
<path transform="translate(131,1636)" d="m0 0 4 4 6 10h-3l-7-12z" fill="#FCFCFD"/>
<path transform="translate(1054,1796)" d="m0 0 2 1v5l-5 1-2-3 4-1z" fill="#97EFFF"/>
<path transform="translate(1753,1503)" d="m0 0 3 1 5 9v2h-2l-6-10z" fill="#CEEF93"/>
<path transform="translate(1572,1175)" d="m0 0 6 5-4 1-5-2z" fill="#97EFFF"/>
</svg>
