<svg width="191" height="80" viewBox="0 0 191 80" fill="none" xmlns="http://www.w3.org/2000/svg">
<g filter="url(#filter0_d_3402_628)">
<path d="M101.596 29.8686V47.5572H91.1936V43.4424C89.6078 46.4989 86.4361 48.0858 81.7906 48.0858C74.15 48.0858 69.9189 43.7955 69.9189 38.2715C69.9189 32.3943 74.2092 28.7564 84.0858 28.7564H90.4292C90.2527 25.5245 88.079 23.7018 83.6714 23.7018C80.5738 23.6985 77.5528 24.6644 75.0317 26.4643L71.2711 18.8829C74.9144 16.4735 80.321 15.1826 85.3165 15.1826C95.6604 15.1752 101.596 19.7594 101.596 29.8686ZM90.4292 37.3316V34.5691H85.6104C82.0253 34.5691 80.7323 35.8621 80.7323 37.801C80.7323 39.6818 82.26 41.034 84.9052 41.034C86.104 41.1049 87.293 40.7813 88.2905 40.1128C89.288 39.4442 90.0392 38.4674 90.4292 37.3316Z" fill="#DB002A"/>
<path d="M103.186 3.95068H114.352V47.5572H103.186V3.95068Z" fill="#DB002A"/>
<path d="M115.175 31.5762C115.175 21.9966 122.756 15.1796 133.158 15.1796C143.678 15.1796 151.142 21.9966 151.142 31.5762C151.142 41.2139 143.678 48.0901 133.158 48.0901C122.757 48.0859 115.175 41.2097 115.175 31.5762ZM139.858 31.5762C139.858 26.7573 136.978 24.054 133.158 24.054C129.396 24.054 126.458 26.7573 126.458 31.5762C126.458 36.4542 129.396 39.2157 133.158 39.2157C136.978 39.2115 139.858 36.45 139.858 31.5762Z" fill="#DB002A"/>
<path d="M186.639 29.3391V47.5573H175.475V31.1607C175.475 26.5765 173.477 24.6376 170.244 24.6376C166.66 24.6376 163.901 26.8704 163.901 32.1598V47.5573H152.731V15.705H163.368V19.1717C164.691 17.8503 166.27 16.8139 168.009 16.1266C169.748 15.4393 171.609 15.1155 173.477 15.1753C180.94 15.1753 186.639 19.4656 186.639 29.3391Z" fill="#DB002A"/>
<path d="M115.174 65.1897C115.154 63.9226 115.511 62.6781 116.199 61.6143C116.888 60.5506 117.878 59.7157 119.042 59.216C120.207 58.7163 121.494 58.5742 122.739 58.8079C123.985 59.0416 125.133 59.6405 126.037 60.5285C126.941 61.4164 127.561 62.5532 127.817 63.7942C128.073 65.0353 127.955 66.3246 127.476 67.4981C126.998 68.6715 126.181 69.6761 125.13 70.3841C124.079 71.0921 122.841 71.4715 121.574 71.4739C120.733 71.5136 119.892 71.3791 119.106 71.0788C118.319 70.7786 117.603 70.3191 117.002 69.7291C116.401 69.1391 115.929 68.4314 115.614 67.6502C115.3 66.8691 115.15 66.0314 115.174 65.1897ZM125.7 65.1897C125.663 64.3786 125.388 63.5964 124.909 62.9403C124.431 62.2842 123.77 61.7831 123.01 61.4992C122.249 61.2154 121.422 61.1614 120.63 61.3438C119.839 61.5263 119.119 61.9372 118.559 62.5255C118 63.1139 117.625 63.8537 117.483 64.653C117.34 65.4523 117.435 66.276 117.757 67.0216C118.078 67.7672 118.612 68.402 119.291 68.8469C119.97 69.2919 120.765 69.5275 121.577 69.5244C122.141 69.5389 122.701 69.435 123.222 69.2194C123.743 69.0038 124.213 68.6814 124.601 68.2729C124.99 67.8644 125.289 67.3789 125.478 66.8479C125.667 66.3168 125.743 65.7519 125.7 65.1897Z" fill="#656565"/>
<path d="M142.693 64.2636V71.3354H140.468V64.5184C140.468 62.1079 139.261 60.9238 137.152 60.9238C134.786 60.9238 133.257 62.3384 133.257 65.0058V71.3354H131.032V59.0462H133.164V60.9006C133.691 60.2417 134.368 59.7188 135.138 59.3758C135.909 59.0329 136.75 58.88 137.592 58.9299C140.582 58.9299 142.693 60.6447 142.693 64.2636Z" fill="#656565"/>
<path d="M146.815 54.1301H149.041V71.3344H146.815V54.1301Z" fill="#656565"/>
<path d="M152.889 55.2444C152.89 55.0488 152.929 54.8553 153.006 54.6753C153.082 54.4952 153.194 54.3323 153.334 54.1962C153.475 54.06 153.641 53.9533 153.823 53.8824C154.006 53.8115 154.2 53.7778 154.396 53.7833C154.68 53.7943 154.954 53.8883 155.185 54.0538C155.415 54.2192 155.593 54.4488 155.694 54.714C155.796 54.9792 155.817 55.2684 155.756 55.5458C155.695 55.8231 155.553 56.0763 155.349 56.274C155.146 56.4717 154.888 56.6053 154.609 56.658C154.33 56.7108 154.042 56.6805 153.78 56.5708C153.518 56.4612 153.294 56.277 153.135 56.0413C152.977 55.8055 152.891 55.5284 152.889 55.2444ZM153.282 59.0504H155.508V71.3397H153.28L153.282 59.0504Z" fill="#656565"/>
<path d="M171.413 64.2636V71.3354H169.187V64.5184C169.187 62.1079 167.981 60.9238 165.872 60.9238C163.506 60.9238 161.977 62.3384 161.977 65.0058V71.3354H159.752V59.0462H161.884V60.9006C162.411 60.2417 163.087 59.7188 163.858 59.3758C164.628 59.0329 165.47 58.88 166.312 58.9299C169.302 58.9299 171.413 60.6447 171.413 64.2636Z" fill="#656565"/>
<path d="M186.595 65.932H176.625C176.767 66.9867 177.308 67.9471 178.136 68.6156C178.964 69.2842 180.016 69.6102 181.077 69.5266C181.74 69.551 182.401 69.4313 183.013 69.1758C183.625 68.9203 184.175 68.535 184.624 68.0465L185.853 69.4832C185.241 70.151 184.49 70.6758 183.652 71.0204C182.815 71.365 181.912 71.521 181.007 71.4772C177.042 71.4772 174.4 68.8574 174.4 65.193C174.366 64.3698 174.503 63.5486 174.8 62.7802C175.096 62.0118 175.548 61.3125 176.126 60.7256C176.704 60.1388 177.397 59.6769 178.161 59.3686C178.925 59.0603 179.744 58.912 180.568 58.9331C184.116 58.9331 186.642 61.4832 186.642 65.2628C186.641 65.4446 186.618 65.7258 186.595 65.932ZM176.625 64.3335H184.509C184.4 63.3643 183.938 62.4692 183.211 61.8193C182.483 61.1693 181.542 60.81 180.567 60.81C179.592 60.81 178.651 61.1693 177.924 61.8193C177.196 62.4692 176.734 63.3643 176.625 64.3335Z" fill="#656565"/>
<path d="M63.9231 17.8205L67.5082 9.18081C67.4246 9.13218 67.3316 9.09201 67.246 9.04443L59.1941 15.7822C60.8275 16.3206 62.4101 17.0027 63.9231 17.8205Z" fill="#DB002A"/>
<path d="M51.6929 22.061L42.6102 29.6604C49.3448 32.2115 57.7529 32.0688 57.7529 35.9805C57.7529 37.9787 55.8721 39.3309 51.0522 39.3309C47.4064 39.2796 43.8117 38.465 40.5 36.9394C39.4758 38.2371 38.761 39.7513 38.41 41.3667C38.059 42.9822 38.081 44.6564 38.4743 46.2621C42.4969 47.6739 46.7309 48.3889 50.9941 48.3766C63.2178 48.3766 69.2123 42.2647 69.2123 35.0956C69.2123 24.8712 58.603 23.6807 51.6929 22.061Z" fill="#DB002A"/>
<path d="M51.2617 5.63696C39.9377 6.05986 34.3629 11.8641 34.3629 18.9369C34.35 20.1919 34.5366 21.4409 34.9159 22.6372L51.2617 5.63696Z" fill="#DB002A"/>
<path d="M27.9942 47.7698C27.4962 50.2384 28.7036 52.5728 30.6986 52.9703C32.6936 53.3678 34.7013 51.6773 35.1992 49.2087C35.6972 46.7401 34.4888 44.4057 32.4938 44.0082C30.4988 43.6107 28.4911 45.3012 27.9942 47.7698ZM28.3113 42.5968C30.9957 40.699 34.5004 39.7422 36.1232 36.6615C37.2202 34.2253 37.7376 31.568 37.6351 28.8982C38.0474 28.9469 38.4174 29.0103 38.7092 29.0589C39.5922 29.1965 40.4958 29.0303 41.272 28.5874C38.5834 32.053 39.1395 34.6792 39.5952 35.7766C39.6595 35.9324 39.6715 36.1049 39.6294 36.2681C39.5872 36.4313 39.4932 36.5764 39.3615 36.6816C37.0356 38.4788 36.4013 42.25 37.1413 45.1088C38.3159 49.6485 35.4762 56.1431 29.9458 54.9865C25.3997 54.0349 24.0518 48.2815 26.2794 44.6985C26.1402 44.3713 26.0709 44.0187 26.0758 43.6631C26.0807 43.3076 26.1597 42.957 26.3079 42.6338C26.8492 41.7468 28.3071 42.5968 28.3071 42.5968H28.3113Z" fill="#656565"/>
<path d="M40.4238 20.7924L58.9254 0.0822554C58.9657 0.0366987 59.0217 0.00785813 59.0822 0.00138532C59.1427 -0.00508749 59.2035 0.0112754 59.2526 0.0472649C59.3016 0.0832545 59.3355 0.136271 59.3476 0.195938C59.3596 0.255605 59.3489 0.317624 59.3176 0.369826C57.403 3.52249 53.7143 9.59206 50.1197 15.317C46.5663 17.2676 43.1155 19.197 40.4238 20.7924Z" fill="#656565"/>
<path d="M11.2529 33.4633C11.532 35.4795 13.7638 36.8464 16.2642 36.5007C18.7455 36.1571 20.5523 34.2309 20.2721 32.2137C19.992 30.1965 17.7612 28.8305 15.2608 29.1752C12.7795 29.5209 10.9727 31.4461 11.2529 33.4633ZM39.7865 25.6239C39.9618 25.7367 40.1727 25.7808 40.3785 25.7477C40.5844 25.7145 40.7708 25.6065 40.9018 25.4444C41.0329 25.2822 41.0995 25.0774 41.0888 24.8691C41.078 24.6609 40.9908 24.464 40.8437 24.3161C40.7585 24.2457 40.66 24.1929 40.5541 24.1609C40.4482 24.1289 40.337 24.1183 40.227 24.1297C40.117 24.1411 40.0103 24.1743 39.9133 24.2274C39.8162 24.2804 39.7307 24.3523 39.6617 24.4388C39.5258 24.6143 39.4629 24.8356 39.4862 25.0564C39.5094 25.2772 39.617 25.4805 39.7865 25.6239ZM9.1585 33.531C8.87516 28.3379 15.2016 26.0912 19.4876 27.4995C22.2766 28.4129 26.0721 27.99 27.9867 25.7794C28.1002 25.6564 28.2495 25.5723 28.4134 25.5389C28.5774 25.5055 28.7477 25.5245 28.9002 25.5933C29.9923 26.1219 32.7263 26.8831 36.4996 24.1047C40.591 21.0979 58.8071 11.3947 65.2742 7.965C65.3282 7.93525 65.3915 7.92685 65.4514 7.94146C65.5113 7.95607 65.5636 7.99262 65.5978 8.0439C65.6321 8.09518 65.6459 8.15745 65.6365 8.2184C65.6271 8.27935 65.5951 8.33455 65.547 8.37309L41.3258 27.6528C40.9762 27.9327 40.5716 28.1361 40.1383 28.2498C39.705 28.3634 39.2527 28.3848 38.8107 28.3125C36.4139 27.9276 31.335 27.4107 27.8028 29.005C24.2473 30.6151 23.225 34.7637 20.6242 37.3571C17.5899 40.3808 11.7434 39.6545 9.79073 35.9467C7.07364 36.0303 3.71482 32.8089 4.0193 31.8362C4.29418 31.0412 6.81039 33.9179 9.1585 33.531Z" fill="#656565"/>
</g>
<defs>
<filter id="filter0_d_3402_628" x="0" y="0" width="190.642" height="79.4844" filterUnits="userSpaceOnUse" color-interpolation-filters="sRGB">
<feFlood flood-opacity="0" result="BackgroundImageFix"/>
<feColorMatrix in="SourceAlpha" type="matrix" values="0 0 0 0 0 0 0 0 0 0 0 0 0 0 0 0 0 0 127 0" result="hardAlpha"/>
<feOffset dy="4"/>
<feGaussianBlur stdDeviation="2"/>
<feComposite in2="hardAlpha" operator="out"/>
<feColorMatrix type="matrix" values="0 0 0 0 0 0 0 0 0 0 0 0 0 0 0 0 0 0 0.25 0"/>
<feBlend mode="normal" in2="BackgroundImageFix" result="effect1_dropShadow_3402_628"/>
<feBlend mode="normal" in="SourceGraphic" in2="effect1_dropShadow_3402_628" result="shape"/>
</filter>
</defs>
</svg>
