<svg id="Layer_1" data-name="Layer 1" xmlns="http://www.w3.org/2000/svg" viewBox="0 0 197.11 187.91" fill="#e40134"><path d="M85.38,103.85a10.25,10.25,0,0,0,2.29,7.55q7.1,9.31,14.23,18.59c8.21,10.76,8.44,24.88.16,35-7.27,8.9-16.93,12.13-28,9.4-10.89-2.69-17.86-9.93-20.28-20.92-2.92-13.27,3.84-25.84,16.34-31.28.31-.13.61-.29,1-.51l-5.53-7.23c-.43.31-.79.54-1.12.82Q54.73,123.5,45,131.7a6.87,6.87,0,0,1-8,1.1,6.8,6.8,0,0,1-3.93-6.72A7.49,7.49,0,0,1,35.58,121Q44.79,111.81,54,102.6a16.55,16.55,0,0,1,1.86-1.34c-1.74-1.67-3-3.08-4.5-4.3C46.62,93,43,88.11,39.48,83.17c-11.43-16-18.49-33.74-22-53-.51-2.77,0-4.55,2.39-6.08s4.51-3.36,6.72-5.1a3.19,3.19,0,0,1,3.67-.4c15.4,7.48,29.51,16.74,41.27,29.34a130.44,130.44,0,0,1,14.77,19l1.62,2.55a10.69,10.69,0,0,1,1.2-2q26.46-26.52,53-53c2.65-2.64,3.8-2.6,6.11.26Q162.94,33,177.68,51.14c1.57,1.93,2.56,4,1.94,6.47a6.38,6.38,0,0,1-10.51,3.2c-1.79-1.61-3.44-3.38-5.15-5.08q-8.28-8.28-16.57-16.55c-.39-.4-.81-.77-1.27-1.19l-2.91,3.08c.84.73,1.83,1.5,2.72,2.38q9.88,9.84,19.73,19.72a12.49,12.49,0,0,1,1.07,1.12,2.77,2.77,0,0,1-3.9,3.9A15.52,15.52,0,0,1,161.59,67L139.43,44.85l-2.72,3c.24.25.65.71,1.09,1.14q10.71,10.73,21.44,21.42c1.07,1.07,1.66,2.21,1,3.68-.88,2-3.07,2.15-4.84.4C151.93,71,148.49,67.57,145,64.12L133.72,52.79c-.41-.4-.83-.78-1.17-1.11l-2.81,2.76c.42.45.83.91,1.27,1.35l21.06,21.07a6.66,6.66,0,0,1,1.23,1.43,2.61,2.61,0,0,1-.5,3.44,2.56,2.56,0,0,1-3.46.2,10.65,10.65,0,0,1-1.26-1.17q-10.47-10.47-20.94-21c-.45-.44-.82-1-1.2-1.39l-3.06,3.1c1.75,1.69,3.62,3.45,5.45,5.26q4.77,4.73,9.5,9.5c1.48,1.5,1.59,3,.39,4.24s-2.88,1.15-4.38-.35c-5-4.94-9.9-9.9-15-15l-2.56,3.21c2.39,2.38,5.08,5,7.63,7.67a3.87,3.87,0,0,1,1.14,2.67,3.13,3.13,0,0,1-1.76,2.21,3.56,3.56,0,0,1-2.91-.69c-2.56-2.29-4.93-4.81-7.36-7.24l-1-1-2.67,3.19c1.37,1.32,3,2.84,4.58,4.42s1.68,3.14.45,4.38-2.84,1.11-4.37-.42-3.11-3.22-4.71-4.88L98.9,85.28l7.32,9.58c.57-.69,1-1.3,1.56-1.87,7.69-8.54,17.22-11.73,28.27-8.72S154,94.89,156,106.27a27,27,0,0,1-22.44,31.6c-10.84,1.72-19.92-2.05-26.81-10.58-5-6.25-9.81-12.72-14.7-19.1A11.54,11.54,0,0,0,85.38,103.85Zm41,28.75c16.56,0,27-12.88,24-26.37-2.05-9.36-9.29-16-19.25-17.3a21.76,21.76,0,0,0-21.58,11.23c-1.83,3.27-3.7,3.42-6,.46C98,93.34,92.44,86,86.82,78.78A3.27,3.27,0,0,0,85,77.48c-4.78-.56-9.57-1.17-14.37-1.39-7.34-.33-12.93-3.44-17.34-9.31-9.4-12.53-19-24.9-28.54-37.32a6.87,6.87,0,0,0-1.24-1,3.82,3.82,0,0,0-.28,1.32,120.67,120.67,0,0,0,28.29,59.6,23.76,23.76,0,0,0,18.17,8.38c4.3.08,8.61,0,12.91.12a17.22,17.22,0,0,1,14,7.11c4.76,6.25,9.51,12.51,14.36,18.7C115.58,129.56,121.67,132.51,126.41,132.6ZM64,103.1c.32.45.6.87.9,1.27q6.33,8.25,12.66,16.52c2,2.68,1.35,4.63-1.87,5.4A21.78,21.78,0,0,0,59.18,152,20.84,20.84,0,0,0,74,168.59c8.12,2.62,15.6.89,21.81-5,8.29-7.81,9-20.59,1.81-30-4-5.25-7.93-10.54-12-15.68-3.37-4.2-6.14-8.57-6-14.26Zm81.07-83.29L90.56,74.29l4.7,6.4c.6-.56,1.06-1,1.5-1.41l46.51-46.47c2.24-2.23,3.42-2.24,5.63,0q11.5,11.5,23,23a6.18,6.18,0,0,0,2,.89c-.21-.67-.43-1.35-.65-2,0,0-.07-.09-.1-.14L154.31,31.21ZM28.65,24.28l-.29.54a4,4,0,0,0,.33.57Q43.84,45.19,59,65a13.25,13.25,0,0,0,9.84,5.28c1.6.13,3.19.38,4.79.53,2.88.28,5.77.53,8.75.79C74.26,57.14,57.71,39,35.35,27.55A46.09,46.09,0,0,0,28.65,24.28ZM59,105.84c-.26.1-.39.11-.46.18L39.38,125.11c-.73.72-1.12,1.54-.28,2.39s1.65.46,2.42-.2l8.16-6.87,12.42-10.5Z"/><circle cx="128.26" cy="109.42" r="12.95"/><circle cx="80.63" cy="146.74" r="12.95"/></svg>